<svg width="219" height="66" viewBox="0 0 219 66" fill="none" xmlns="http://www.w3.org/2000/svg">
<path d="M210.276 65.5119H8.4606C3.93994 65.5119 0.388 61.96 0.388 57.4393V9.00375C0.388 4.4831 3.93994 0.931152 8.4606 0.931152H210.276C214.796 0.931152 218.348 4.4831 218.348 9.00375V57.4393C218.348 61.96 214.796 65.5119 210.276 65.5119Z" fill="black"/>
<path d="M210.276 2.22277C213.989 2.22277 217.057 5.29036 217.057 9.00375V57.4393C217.057 61.1527 213.989 64.2203 210.276 64.2203H8.4606C4.7472 64.2203 1.67962 61.1527 1.67962 57.4393V9.00375C1.67962 5.29036 4.7472 2.22277 8.4606 2.22277H210.276ZM210.276 0.931152H8.4606C3.93994 0.931152 0.388 4.64455 0.388 9.00375V57.4393C0.388 61.96 3.93994 65.5119 8.4606 65.5119H210.276C214.796 65.5119 218.348 61.96 218.348 57.4393V9.00375C218.348 4.64455 214.796 0.931152 210.276 0.931152Z" fill="#A6A6A6"/>
<path d="M110.334 36.1275C106.459 36.1275 103.391 39.0337 103.391 43.07C103.391 46.9448 106.459 50.0124 110.334 50.0124C114.209 50.0124 117.276 47.1063 117.276 43.07C117.276 38.8722 114.209 36.1275 110.334 36.1275ZM110.334 47.1063C108.235 47.1063 106.459 45.3303 106.459 42.9085C106.459 40.4868 108.235 38.7108 110.334 38.7108C112.433 38.7108 114.209 40.3253 114.209 42.9085C114.209 45.3303 112.433 47.1063 110.334 47.1063ZM95.3188 36.1275C91.444 36.1275 88.3764 39.0337 88.3764 43.07C88.3764 46.9448 91.444 50.0124 95.3188 50.0124C99.1937 50.0124 102.261 47.1063 102.261 43.07C102.261 38.8722 99.1937 36.1275 95.3188 36.1275ZM95.3188 47.1063C93.2199 47.1063 91.444 45.3303 91.444 42.9085C91.444 40.4868 93.2199 38.7108 95.3188 38.7108C97.4177 38.7108 99.1937 40.3253 99.1937 42.9085C99.1937 45.3303 97.4177 47.1063 95.3188 47.1063ZM77.3977 38.2264V41.1326H84.3401C84.1786 42.7471 83.5328 44.0387 82.7256 44.846C81.7569 45.8147 80.1423 46.9448 77.3977 46.9448C73.0385 46.9448 69.8094 43.5543 69.8094 39.1951C69.8094 34.8359 73.1999 31.4454 77.3977 31.4454C79.658 31.4454 81.434 32.4142 82.7256 33.5443L84.8244 31.4454C83.0485 29.8309 80.7881 28.5393 77.5591 28.5393C71.7468 28.5393 66.7418 33.3829 66.7418 39.1951C66.7418 45.0074 71.7468 49.851 77.5591 49.851C80.7881 49.851 83.0485 48.8823 84.9859 46.7834C86.9233 44.846 87.5691 42.1013 87.5691 40.0024C87.5691 39.3566 87.5691 38.7108 87.4077 38.2264H77.3977ZM150.697 40.4868C150.051 38.8722 148.437 36.1275 144.885 36.1275C141.333 36.1275 138.426 38.8722 138.426 43.07C138.426 46.9448 141.333 50.0124 145.207 50.0124C148.275 50.0124 150.212 48.075 150.858 46.9448L148.598 45.3303C147.791 46.4605 146.822 47.2677 145.207 47.2677C143.593 47.2677 142.624 46.6219 141.817 45.1689L151.02 41.294L150.697 40.4868ZM141.333 42.7471C141.333 40.1638 143.432 38.7108 144.885 38.7108C146.015 38.7108 147.145 39.3566 147.468 40.1638L141.333 42.7471ZM133.744 49.3666H136.812V29.1851H133.744V49.3666ZM128.901 37.5806C128.094 36.7734 126.802 35.9661 125.187 35.9661C121.797 35.9661 118.568 39.0337 118.568 42.9085C118.568 46.7834 121.635 49.6895 125.187 49.6895C126.802 49.6895 128.094 48.8823 128.739 48.075H128.901V49.0437C128.901 51.6269 127.448 53.08 125.187 53.08C123.411 53.08 122.12 51.7884 121.797 50.6582L119.214 51.7884C120.021 53.5644 121.958 55.8247 125.349 55.8247C128.901 55.8247 131.807 53.7258 131.807 48.7208V36.4505H128.901V37.5806ZM125.349 47.1063C123.25 47.1063 121.474 45.3303 121.474 42.9085C121.474 40.4868 123.25 38.7108 125.349 38.7108C127.448 38.7108 129.062 40.4868 129.062 42.9085C129.062 45.3303 127.448 47.1063 125.349 47.1063ZM164.743 29.1851H157.478V49.3666H160.545V41.7784H164.743C168.134 41.7784 171.363 39.3566 171.363 35.4817C171.363 31.6069 168.134 29.1851 164.743 29.1851ZM164.905 38.8722H160.545V31.9298H164.905C167.165 31.9298 168.457 33.8672 168.457 35.3203C168.295 37.0963 167.004 38.8722 164.905 38.8722ZM183.472 35.9661C181.211 35.9661 178.951 36.9348 178.144 39.0337L180.888 40.1638C181.534 39.0337 182.503 38.7108 183.633 38.7108C185.248 38.7108 186.701 39.6795 186.862 41.294V41.4555C186.378 41.1326 185.086 40.6482 183.795 40.6482C180.888 40.6482 177.982 42.2627 177.982 45.1689C177.982 47.9135 180.404 49.6895 182.987 49.6895C185.086 49.6895 186.055 48.7208 186.862 47.7521H187.024V49.3666H189.93V41.6169C189.607 38.065 186.862 35.9661 183.472 35.9661ZM183.149 47.1063C182.18 47.1063 180.727 46.6219 180.727 45.3303C180.727 43.7158 182.503 43.2314 183.956 43.2314C185.248 43.2314 185.893 43.5543 186.701 43.8772C186.378 45.8147 184.763 47.1063 183.149 47.1063ZM200.101 36.4505L196.711 45.1689H196.549L192.997 36.4505H189.768L195.096 48.7208L192.029 55.5018H195.096L203.33 36.4505H200.101ZM172.977 49.3666H176.045V29.1851H172.977V49.3666Z" fill="white"/>
<path d="M17.1759 13.04C16.6915 13.5244 16.5301 14.3317 16.5301 15.3004V50.9813C16.5301 51.95 16.853 52.7572 17.3374 53.2416L17.4988 53.403L37.5188 33.383V33.0601L17.1759 13.04Z" fill="url(#paint0_linear_1_413)"/>
<path d="M43.977 40.1636L37.3574 33.5441V33.0597L43.977 26.4402L44.1384 26.6016L52.0496 31.1223C54.3099 32.4139 54.3099 34.5128 52.0496 35.8044L43.977 40.1636Z" fill="url(#paint1_linear_1_413)"/>
<path d="M44.137 40.0022L37.356 33.2212L17.1745 53.4027C17.9818 54.2099 19.1119 54.2099 20.565 53.5641L44.137 40.0022Z" fill="url(#paint2_linear_1_413)"/>
<path d="M44.137 26.4408L20.565 13.0403C19.1119 12.233 17.9818 12.3944 17.1745 13.2017L37.356 33.2218L44.137 26.4408Z" fill="url(#paint3_linear_1_413)"/>
<path opacity="0.2" d="M43.9755 39.8411L20.565 53.0801C19.2734 53.8874 18.1432 53.7259 17.336 53.0801L17.1745 53.2416L17.336 53.403C18.1432 54.0488 19.2734 54.2103 20.565 53.403L43.9755 39.8411Z" fill="black"/>
<path opacity="0.12" d="M17.1759 53.08C16.6915 52.5957 16.5301 51.7884 16.5301 50.8197V50.9812C16.5301 51.9499 16.853 52.7571 17.3374 53.2415V53.08H17.1759ZM52.0495 35.3203L43.9769 39.841L44.1384 40.0024L52.0495 35.4818C53.1797 34.836 53.664 34.0287 53.664 33.2214C53.664 34.0287 53.0182 34.6745 52.0495 35.3203Z" fill="black"/>
<path opacity="0.25" d="M20.5664 13.2013L52.0495 31.1225C53.0182 31.7683 53.664 32.4141 53.664 33.2213C53.664 32.4141 53.1797 31.6068 52.0495 30.961L20.5664 13.0398C18.3061 11.7482 16.5301 12.7169 16.5301 15.3002V15.4616C16.5301 13.0398 18.3061 11.9097 20.5664 13.2013Z" fill="white"/>
<path d="M74.0585 18.8005C74.0585 19.6308 73.8988 20.3249 73.5795 20.8829C73.2635 21.4375 72.8047 21.856 72.203 22.1384C71.6013 22.4174 70.8769 22.5569 70.0298 22.5569H67.9424V15.1853H70.2567C71.0298 15.1853 71.7004 15.3231 72.2685 15.5987C72.8366 15.871 73.2769 16.2761 73.5896 16.8139C73.9022 17.3484 74.0585 18.0106 74.0585 18.8005ZM72.4349 18.8408C72.4349 18.2963 72.3542 17.8492 72.1929 17.4996C72.0349 17.1467 71.7996 16.8862 71.487 16.7181C71.1777 16.55 70.7945 16.466 70.3374 16.466H69.5054V21.2661H70.176C70.9391 21.2661 71.5055 21.0627 71.8752 20.656C72.2483 20.2493 72.4349 19.6442 72.4349 18.8408ZM75.5862 22.5569V15.1853H77.1493V22.5569H75.5862ZM83.3562 20.5098C83.3562 20.9468 83.2503 21.3266 83.0385 21.6493C82.8268 21.972 82.5175 22.2207 82.1108 22.3955C81.7074 22.5703 81.2166 22.6577 80.6385 22.6577C80.383 22.6577 80.1326 22.6409 79.8872 22.6073C79.6452 22.5737 79.4115 22.525 79.1863 22.4611C78.9645 22.3939 78.7527 22.3115 78.551 22.214V20.7619C78.9006 20.9165 79.2636 21.056 79.6401 21.1804C80.0166 21.3048 80.3897 21.3669 80.7595 21.3669C81.015 21.3669 81.22 21.3333 81.3746 21.2661C81.5326 21.1989 81.6469 21.1064 81.7175 20.9888C81.7881 20.8711 81.8234 20.7367 81.8234 20.5854C81.8234 20.4005 81.7612 20.2425 81.6368 20.1114C81.5124 19.9803 81.341 19.8577 81.1225 19.7434C80.9074 19.6291 80.6637 19.5064 80.3914 19.3753C80.22 19.2946 80.0334 19.1971 79.8317 19.0828C79.63 18.9652 79.4384 18.8223 79.2569 18.6543C79.0754 18.4862 78.9258 18.2828 78.8082 18.0442C78.6939 17.8021 78.6367 17.5131 78.6367 17.1769C78.6367 16.7366 78.7376 16.3601 78.9393 16.0475C79.141 15.7349 79.4284 15.4962 79.8015 15.3315C80.178 15.1634 80.6217 15.0794 81.1326 15.0794C81.5158 15.0794 81.8805 15.1248 82.2267 15.2155C82.5763 15.3029 82.9411 15.4307 83.3209 15.5987L82.8167 16.8139C82.4772 16.6761 82.173 16.5702 81.904 16.4962C81.6351 16.4189 81.3612 16.3803 81.0822 16.3803C80.8872 16.3803 80.7208 16.4122 80.583 16.4761C80.4452 16.5366 80.341 16.624 80.2704 16.7383C80.1998 16.8492 80.1645 16.9786 80.1645 17.1265C80.1645 17.3013 80.2149 17.4492 80.3158 17.5702C80.42 17.6879 80.5746 17.8021 80.7797 17.9131C80.9881 18.024 81.2469 18.1534 81.5561 18.3013C81.9326 18.4795 82.2536 18.666 82.5192 18.861C82.7881 19.0526 82.9948 19.2795 83.1394 19.5417C83.2839 19.8005 83.3562 20.1232 83.3562 20.5098ZM87.047 15.1853C87.9983 15.1853 88.6925 15.3903 89.1294 15.8004C89.5664 16.2071 89.7849 16.7685 89.7849 17.4845C89.7849 17.8072 89.7362 18.1164 89.6387 18.4122C89.5412 18.7047 89.3815 18.9652 89.1597 19.1938C88.9412 19.4224 88.6488 19.6039 88.2824 19.7383C87.916 19.8694 87.4639 19.935 86.926 19.935H86.2554V22.5569H84.6924V15.1853H87.047ZM86.9664 16.466H86.2554V18.6543H86.7697C87.0622 18.6543 87.316 18.6156 87.5311 18.5383C87.7462 18.461 87.9126 18.34 88.0303 18.1753C88.1479 18.0106 88.2067 17.7988 88.2067 17.54C88.2067 17.1769 88.1059 16.908 87.9042 16.7332C87.7025 16.5551 87.3899 16.466 86.9664 16.466ZM97.8675 18.861C97.8675 19.4291 97.7969 19.9467 97.6557 20.414C97.5145 20.8779 97.2994 21.2779 97.0103 21.614C96.7246 21.9501 96.3616 22.209 95.9212 22.3905C95.4809 22.5686 94.9598 22.6577 94.3581 22.6577C93.7564 22.6577 93.2354 22.5686 92.7951 22.3905C92.3547 22.209 91.99 21.9501 91.7009 21.614C91.4152 21.2779 91.2018 20.8762 91.0606 20.4089C90.9194 19.9417 90.8488 19.4224 90.8488 18.8509C90.8488 18.0879 90.9732 17.424 91.2219 16.8593C91.474 16.2912 91.8606 15.8508 92.3816 15.5382C92.9026 15.2256 93.5648 15.0693 94.3682 15.0693C95.1682 15.0693 95.8254 15.2256 96.3397 15.5382C96.8574 15.8508 97.2406 16.2912 97.4893 16.8593C97.7414 17.4273 97.8675 18.0946 97.8675 18.861ZM92.4875 18.861C92.4875 19.3753 92.5514 19.819 92.6791 20.1921C92.8102 20.5619 93.0136 20.8476 93.2892 21.0493C93.5648 21.2476 93.9212 21.3468 94.3581 21.3468C94.8019 21.3468 95.1615 21.2476 95.4372 21.0493C95.7128 20.8476 95.9128 20.5619 96.0372 20.1921C96.1649 19.819 96.2288 19.3753 96.2288 18.861C96.2288 18.0879 96.0842 17.4794 95.7952 17.0357C95.5061 16.592 95.0304 16.3702 94.3682 16.3702C93.9279 16.3702 93.5682 16.471 93.2892 16.6727C93.0136 16.871 92.8102 17.1567 92.6791 17.5299C92.5514 17.8996 92.4875 18.3433 92.4875 18.861ZM105.935 22.5569H103.948L100.741 16.9803H100.696C100.71 17.2122 100.721 17.4458 100.731 17.6811C100.741 17.9164 100.752 18.1517 100.762 18.387C100.772 18.619 100.782 18.8526 100.792 19.0879V22.5569H99.3952V15.1853H101.367L104.568 20.7064H104.604C104.597 20.4778 104.589 20.2509 104.579 20.0257C104.568 19.8005 104.558 19.5753 104.548 19.3501C104.542 19.1249 104.535 18.8996 104.528 18.6744V15.1853H105.935V22.5569ZM107.795 22.5569V15.1853H109.359V22.5569H107.795ZM111.214 15.1853H113.508C114.49 15.1853 115.233 15.3231 115.737 15.5987C116.241 15.8744 116.493 16.3584 116.493 17.0509C116.493 17.3299 116.448 17.582 116.357 17.8072C116.27 18.0324 116.142 18.2173 115.974 18.3618C115.806 18.5064 115.601 18.6005 115.359 18.6442V18.6946C115.604 18.745 115.826 18.8324 116.024 18.9568C116.223 19.0778 116.381 19.256 116.498 19.4913C116.619 19.7232 116.68 20.0325 116.68 20.419C116.68 20.8661 116.57 21.2493 116.352 21.5686C116.133 21.888 115.821 22.1333 115.414 22.3048C115.011 22.4728 114.53 22.5569 113.972 22.5569H111.214V15.1853ZM112.777 18.1047H113.685C114.138 18.1047 114.453 18.0341 114.628 17.8929C114.802 17.7484 114.89 17.5366 114.89 17.2576C114.89 16.9752 114.786 16.7735 114.577 16.6525C114.372 16.5282 114.046 16.466 113.599 16.466H112.777V18.1047ZM112.777 19.345V21.2661H113.796C114.266 21.2661 114.594 21.1753 114.779 20.9938C114.964 20.8123 115.056 20.5686 115.056 20.2627C115.056 20.0812 115.016 19.9215 114.935 19.7837C114.854 19.6459 114.718 19.5383 114.527 19.461C114.338 19.3837 114.078 19.345 113.745 19.345H112.777ZM118.152 22.5569V15.1853H119.715V21.2661H122.705V22.5569H118.152ZM128.236 22.5569H123.991V15.1853H128.236V16.466H125.554V18.0845H128.05V19.3652H125.554V21.2661H128.236V22.5569ZM136.707 22.5569H132.462V15.1853H136.707V16.466H134.025V18.0845H136.521V19.3652H134.025V21.2661H136.707V22.5569ZM144.79 22.5569H142.803L139.596 16.9803H139.551C139.564 17.2122 139.576 17.4458 139.586 17.6811C139.596 17.9164 139.606 18.1517 139.616 18.387C139.627 18.619 139.637 18.8526 139.647 19.0879V22.5569H138.25V15.1853H140.221L143.423 20.7064H143.459C143.452 20.4778 143.443 20.2509 143.433 20.0257C143.423 19.8005 143.413 19.5753 143.403 19.3501C143.396 19.1249 143.39 18.8996 143.383 18.6744V15.1853H144.79V22.5569Z" fill="white"/>
<defs>
<linearGradient id="paint0_linear_1_413" x1="35.5814" y1="14.9936" x2="8.48494" y2="42.0885" gradientUnits="userSpaceOnUse">
<stop stop-color="#00A0FF"/>
<stop offset="0.007" stop-color="#00A1FF"/>
<stop offset="0.26" stop-color="#00BEFF"/>
<stop offset="0.512" stop-color="#00D2FF"/>
<stop offset="0.76" stop-color="#00DFFF"/>
<stop offset="1" stop-color="#00E3FF"/>
</linearGradient>
<linearGradient id="paint1_linear_1_413" x1="55.0106" y1="33.2228" x2="15.944" y2="33.2228" gradientUnits="userSpaceOnUse">
<stop stop-color="#FFE000"/>
<stop offset="0.409" stop-color="#FFBD00"/>
<stop offset="0.775" stop-color="#FFA500"/>
<stop offset="1" stop-color="#FF9C00"/>
</linearGradient>
<linearGradient id="paint2_linear_1_413" x1="40.4672" y1="36.9281" x2="3.72394" y2="73.6714" gradientUnits="userSpaceOnUse">
<stop stop-color="#FF3A44"/>
<stop offset="1" stop-color="#C31162"/>
</linearGradient>
<linearGradient id="paint3_linear_1_413" x1="12.1646" y1="1.21551" x2="28.573" y2="17.6239" gradientUnits="userSpaceOnUse">
<stop stop-color="#32A071"/>
<stop offset="0.069" stop-color="#2DA771"/>
<stop offset="0.476" stop-color="#15CF74"/>
<stop offset="0.801" stop-color="#06E775"/>
<stop offset="1" stop-color="#00F076"/>
</linearGradient>
</defs>
</svg>
