<svg width="93" height="93" viewBox="0 0 93 93" fill="none" xmlns="http://www.w3.org/2000/svg">
<g filter="url(#filter0_d_1_364)">
<rect x="5.31335" y="0.792847" width="81.842" height="81.842" rx="25.855" fill="url(#paint0_linear_1_364)"/>
</g>
<path d="M43.4816 48.6403C43.5192 48.6454 43.5274 48.6469 43.564 48.6517C44.1764 48.7349 44.7781 48.8453 45.2387 49.0511C45.6655 49.2396 45.9157 49.4781 46.1442 49.9033C46.4916 50.548 46.5142 51.4512 46.2003 52.1348C45.9658 52.6434 45.451 53.0699 44.981 53.296C44.493 53.5326 44.0122 53.6453 43.4607 53.7082C42.4962 53.8144 41.4545 53.6146 40.5865 53.1948C40.0731 52.9441 39.446 52.5123 39.1298 51.9559C38.8972 51.5484 38.9046 51.0181 39.1875 50.6308C39.6386 50.0134 40.6047 49.8775 41.3323 49.9033C41.8871 49.9248 42.886 50.0962 43.4127 50.2836C43.5587 50.3364 44.0971 50.5461 44.1911 50.6423C44.2572 50.7093 44.3001 50.8065 44.2704 50.8964C44.1501 51.2645 43.2556 51.4585 42.9973 51.4975C42.3058 51.6034 41.947 51.3417 41.1609 51.0313C40.9657 50.9549 40.7057 50.8701 40.507 50.8518C40.1501 50.8178 39.719 50.9177 39.6509 51.3073C39.617 51.5081 39.8525 51.6959 40.0321 51.7748C40.4538 51.9559 40.7966 52.0211 41.2116 52.0267C42.4376 52.0469 43.8155 51.845 44.8183 51.1345C44.9556 51.0365 45.0904 50.8931 45.0918 50.7123C45.0962 50.3473 44.4562 50.124 44.4562 50.124C43.7807 49.8424 42.5325 49.7054 41.8895 49.6524C41.2148 49.594 40.1531 49.5066 39.8982 49.4691C39.6357 49.4316 39.3507 49.3787 39.1234 49.2768C38.895 49.1737 38.6717 48.9428 38.6054 48.6875C38.4878 48.2271 38.6378 47.6622 38.8935 47.2944C39.5635 46.3311 41.1331 45.9653 42.3057 45.82C43.4406 45.6788 45.2754 45.6802 46.3901 46.2725C46.5622 46.3648 46.6501 46.4506 46.6141 46.6346C46.5415 46.98 46.2819 47.2026 45.9673 47.3002C45.6372 47.4052 44.9543 47.4461 44.6544 47.465C43.3105 47.5404 41.6864 47.5009 40.4064 47.8499C40.3061 47.8786 40.1328 47.9253 40.0765 47.9882C39.8762 48.2057 40.4485 48.2678 40.571 48.2927C40.6075 48.3014 40.6146 48.3026 40.6526 48.3068L43.4816 48.6403ZM35.4866 42.6477C35.4866 42.6477 35.7051 42.3198 35.8883 42.0711C36.2218 41.6182 36.8254 40.99 37.2799 40.6011C37.4189 40.4823 37.5829 40.3477 37.5829 40.3477C37.5829 40.3477 37.3265 40.3742 37.1812 40.404C36.8363 40.4711 36.3307 40.8072 36.078 41.0243C35.6611 41.3812 35.2026 41.9614 35.4101 42.4769C35.4402 42.5497 35.4866 42.6477 35.4866 42.6477ZM37.8043 43.2679C38.4629 43.2225 39.0798 43.0329 39.6542 42.7143C40.2176 42.399 41.0461 41.7844 40.9602 41.0618C40.934 40.828 40.7809 40.6514 40.5876 40.569C40.3364 40.4601 40.2054 40.4777 39.8845 40.5731C39.6513 40.6413 39.5463 40.6827 39.3261 40.8086C38.68 41.184 37.7639 41.9874 37.2665 42.6286C37.1517 42.7798 37.0355 42.9489 36.9445 43.0648C36.8871 43.1363 36.8425 43.2019 36.8481 43.2194C36.8679 43.292 37.547 43.2854 37.8043 43.2679ZM36.1273 44.4996C36.0594 44.5715 35.9875 44.7448 35.913 44.8702C35.8732 44.9373 35.7994 45.0237 35.7506 45.0584C35.5792 45.1845 35.4339 45.1903 35.2684 45.0447C35.0364 44.8394 34.9022 44.5219 34.8926 44.2131C34.8877 44.0784 34.9108 43.9293 34.8853 43.8156C34.8431 43.6238 34.6511 43.4263 34.5477 43.2429C34.4262 43.0269 34.3278 42.6502 34.3156 42.407C34.2739 41.6487 34.6736 40.9501 35.1929 40.3992C35.7158 39.8421 36.4 39.3791 37.144 39.0638C37.8473 38.7676 38.8779 38.5657 39.6502 38.8331C39.9017 38.9193 40.252 39.1333 40.428 39.3574C40.4654 39.4039 40.4958 39.4543 40.5342 39.4789C40.5685 39.5008 40.6583 39.5094 40.7298 39.5225C40.9761 39.5652 41.3308 39.7517 41.4757 39.8759C41.7667 40.127 41.9262 40.367 42 40.7154C42.1479 41.4162 41.7443 42.1851 41.2846 42.6531C40.4975 43.4586 39.7201 44.0249 38.7132 44.4191C38.2709 44.5918 37.5821 44.7533 37.0803 44.7081C36.9244 44.6952 36.7644 44.6541 36.6126 44.6441C36.5352 44.6374 36.2521 44.5644 36.2218 44.5438C36.1843 44.5149 36.1358 44.4899 36.1273 44.4996ZM37.0266 46.0535C37.0573 46.0587 37.1046 46.0724 37.1452 46.0881C37.4982 46.2223 37.6435 46.549 37.7304 46.9079C37.9319 47.7412 38.018 49.5847 38.0515 50.3063C38.0761 50.848 38.0896 51.3808 38.1123 51.9162C38.1316 52.3695 38.1677 52.9723 38.0732 53.397C38.0389 53.5498 37.9367 53.7275 37.7904 53.8184C37.6228 53.9257 37.2413 53.9339 37.0316 53.8906C36.5147 53.7838 36.3468 53.4514 36.273 52.9403C36.0977 51.7206 36.1821 49.3268 36.2856 48.3167C36.32 47.9831 36.4456 46.9141 36.6198 46.4659C36.6793 46.3147 36.806 46.0103 37.0266 46.0535ZM21.3026 48.0829C21.3026 48.0829 20.5334 48.1373 20.0039 48.1961C19.3303 48.2686 18.0646 48.4871 17.3341 48.748C17.1149 48.8265 16.6698 49.0128 16.6311 49.2381C16.5904 49.4717 16.7354 49.6543 16.8966 49.8432C16.9898 49.953 17.5174 50.4605 17.6654 50.5839C18.2856 51.1016 19.5431 51.9001 20.4692 52.2879C20.7874 52.4195 21.3138 52.608 21.3138 52.608C21.3138 52.608 21.2747 51.1092 21.2817 49.6328C21.2858 48.854 21.3026 48.0829 21.3026 48.0829ZM35.4078 48.6794C35.4518 49.082 35.3483 49.8433 35.3304 49.9437C35.2976 50.1752 35.1231 50.709 35.0941 50.7742C34.9532 51.0986 34.8143 51.3645 34.6671 51.6297C34.4149 52.0836 33.815 52.8033 33.459 53.1113C32.1348 54.2558 30.085 54.9075 28.3265 55.1221C27.1332 55.2663 25.7621 55.2451 24.4977 55.0112C24.0626 54.932 23.415 54.7828 23.415 54.7828C23.415 54.7828 23.4172 55.0417 23.3964 55.2238C23.3864 55.3068 23.3238 55.5255 23.2887 55.5964C23.1968 55.7863 23.0458 55.8842 22.8264 55.9264C22.5615 55.9755 22.2805 55.9919 22.0358 55.8873C21.6339 55.7182 21.4896 55.3422 21.4196 54.9086C21.3629 54.5617 21.3036 53.9588 21.3036 53.9588C21.3036 53.9588 21.003 53.8165 20.7523 53.6914C19.9823 53.312 19.251 52.8523 18.6112 52.3795C18.4339 52.2472 17.6724 51.6095 17.5043 51.4511C17.033 51.0037 16.609 50.5585 16.2865 49.9873C16.0357 49.5411 15.9635 49.145 16.1542 48.6722C16.4172 48.0132 17.3621 47.517 18.0088 47.2342C18.4834 47.0246 19.9593 46.5427 20.5724 46.4534C20.862 46.412 21.3111 46.3315 21.3387 46.3136C21.35 46.305 21.3578 46.2976 21.366 46.2883C21.3801 46.2684 21.404 45.616 21.3994 45.3773C21.3934 45.1427 21.573 43.6016 21.6307 43.2757C21.6609 43.0995 21.7943 42.4211 21.9306 42.243C22.0197 42.1227 22.1773 42.1324 22.3058 42.2114C23.009 42.6486 23.2226 44.1651 23.2749 44.9366C23.3062 45.4067 23.3218 46.1138 23.3218 46.1138C23.3218 46.1138 24.1284 46.09 24.6246 46.104C25.1068 46.1153 25.6383 46.1913 26.1388 46.2711C26.7795 46.3738 28.0285 46.6463 28.7448 47.0094C29.3346 47.3084 29.8867 47.8123 30.0656 48.3455C30.2318 48.8342 30.2069 49.1725 29.9537 49.6136C29.6691 50.1117 29.1308 50.482 28.5849 50.5129C28.4225 50.5223 27.8111 50.441 27.623 50.2954C27.5492 50.2373 27.553 50.1325 27.6063 50.0615C27.6264 50.0365 27.9122 49.8846 28.0809 49.7959C28.1606 49.7533 28.2347 49.701 28.3015 49.6402C28.4416 49.5168 28.5677 49.381 28.5536 49.2217C28.5343 49.015 28.3155 48.8876 28.1071 48.8056C27.129 48.417 25.176 48.0944 24.2323 48.0386C23.8629 48.0169 23.3375 47.9984 23.3375 47.9984L23.4486 53.2096C23.4486 53.2096 23.883 53.2924 24.2253 53.3479C24.4217 53.3777 25.254 53.4526 25.4752 53.458C27.1592 53.5025 29.0388 53.3517 30.5842 52.6224C31.2627 52.3031 31.8852 51.9056 32.3564 51.3674C32.9775 50.6553 33.3028 49.6808 33.2167 48.6629C33.1224 47.5512 32.34 46.2316 31.7152 45.4281C30.0644 43.3052 27.2348 41.5589 24.7454 40.535C22.2038 39.4905 19.692 38.8896 16.9947 38.789C16.2993 38.7632 14.7832 38.7983 14.0168 39.0103C13.9073 39.0411 13.7969 39.078 13.6953 39.1008C13.615 39.1205 13.4885 39.1737 13.4537 39.2017C13.4401 39.2132 13.4273 39.2256 13.4154 39.2389C13.4154 39.2389 13.4627 39.265 13.5078 39.2841C13.589 39.3195 13.9308 39.3407 14.1076 39.3731C14.2658 39.4029 14.4306 39.4859 14.4958 39.6019C14.5577 39.7121 14.5655 39.799 14.4914 39.8909C14.3178 40.1021 13.6642 40.0665 13.3763 40.0209C13.0773 39.9732 12.7049 39.8817 12.6365 39.6213C12.5571 39.3146 12.7028 39.0139 12.8602 38.736C13.1765 38.1799 13.6294 37.8906 14.2927 37.7095C15.2349 37.4503 16.4246 37.269 17.3142 37.235C19.3279 37.1589 21.2337 37.5111 23.1847 38.1034C24.3013 38.441 25.7632 39.0076 26.8335 39.5229C27.6014 39.8932 28.8114 40.5741 29.4911 41.0192C29.7055 41.1606 30.96 42.0824 31.1549 42.2444C31.5614 42.5768 32.0931 43.0545 32.4781 43.4365C33.223 44.1747 34.1496 45.3062 34.5997 46.2043C34.708 46.4194 34.7919 46.631 34.9316 46.8802C34.9797 46.9656 35.1853 47.4764 35.2195 47.6239C35.2533 47.7699 35.303 47.9845 35.31 47.993C35.3199 48.0714 35.4152 48.5102 35.4078 48.6794ZM60.7226 47.5271C59.7796 47.7445 57.2999 47.8653 57.2999 47.8653L56.9872 48.8448C56.9872 48.8448 58.2264 48.739 59.1279 48.8332C59.1279 48.8332 59.42 48.7992 59.4544 49.1648C59.466 49.5057 59.4254 49.8715 59.4254 49.8715C59.4254 49.8715 59.4067 50.0928 59.0931 50.1491C58.7532 50.2057 56.4221 50.2959 56.4221 50.2959L56.0446 51.5726C56.0446 51.5726 55.9043 51.8678 56.2187 51.7835C56.5108 51.7053 58.9533 51.247 59.2715 51.3129C59.6124 51.3976 59.9897 51.8521 59.8806 52.2663C59.7506 52.7797 57.3128 54.3345 55.8282 54.226C55.8282 54.226 55.048 54.2763 54.3886 53.2234C53.7745 52.2202 54.6214 50.3205 54.6214 50.3205C54.6214 50.3205 54.2332 49.4337 54.5145 49.1331C54.5145 49.1331 54.6819 48.9812 55.1699 48.9468L55.7674 47.7107C55.7674 47.7107 55.0868 47.7575 54.6819 47.2568C54.3047 46.7818 54.2731 46.5635 54.5623 46.4324C54.8715 46.2797 57.7058 45.7624 59.6562 45.828C59.6562 45.828 60.334 45.7614 60.9218 46.9371C60.922 46.9372 61.2067 47.4127 60.7226 47.5271ZM53.3869 52.2801C53.137 52.8681 52.4767 53.4955 51.6565 53.1055C50.8468 52.7147 49.557 50.075 49.557 50.075C49.557 50.075 49.0674 49.0906 48.9732 49.116C48.9732 49.116 48.8675 48.9238 48.8026 49.9994C48.7351 51.0705 48.8156 53.159 48.3883 53.4877C47.9836 53.8174 47.4935 53.6861 47.2393 53.301C47.0083 52.9216 46.9121 52.0201 47.0382 50.4368C47.1864 48.8504 47.5549 47.1626 48.0257 46.637C48.4959 46.115 48.8734 46.494 49.0205 46.6315C49.0205 46.6315 49.6494 47.2015 50.6866 48.8754L50.8696 49.185C50.8696 49.185 51.8121 50.7664 51.9106 50.7628C51.9106 50.7628 51.9876 50.8354 52.0563 50.7832C52.1552 50.7549 52.1153 50.2479 52.1153 50.2479C52.1153 50.2479 51.9197 48.5244 51.0599 45.6073C51.0599 45.6073 50.9299 45.2435 51.0178 44.9027C51.1051 44.5583 51.4504 44.7199 51.4504 44.7199C51.4504 44.7199 52.783 45.39 53.4299 47.5597C54.0725 49.73 53.6407 51.6878 53.3869 52.2801ZM67.7294 50.9807C67.1228 52.0391 65.4102 54.2554 63.1343 53.7321C62.3827 55.5547 61.7513 57.3984 61.3903 60.1572C61.3903 60.1572 61.3109 60.6933 60.8654 60.5071C60.4239 60.3526 59.6965 59.6185 59.5494 58.6029C59.3911 57.2688 59.985 55.0136 61.1989 52.4277C60.8449 51.8521 60.6035 51.0298 60.8101 49.8589C60.8101 49.8589 61.115 47.6846 63.2987 45.7249C63.2987 45.7249 63.5605 45.4988 63.7122 45.5685C63.8794 45.6386 63.802 46.3461 63.6693 46.6901C63.5315 47.0322 62.5593 48.7152 62.5593 48.7152C62.5593 48.7152 61.9529 49.8522 62.1236 50.749C63.2688 48.9882 65.8722 45.4376 67.4859 46.5573C68.0279 46.9451 68.2778 47.7887 68.2778 48.6976C68.2781 49.4961 68.0856 50.3447 67.7294 50.9807ZM67.2585 48.1921C67.2585 48.1921 67.1687 47.492 66.4843 48.2633C65.8956 48.9141 64.8339 50.1334 63.9791 51.7896C64.8759 51.6889 65.7409 51.2024 66.0025 50.9546C66.4277 50.5773 67.4183 49.5537 67.2585 48.1921ZM80.2672 48.0327H76.096C76.0128 46.615 75.8417 45.234 75.5727 43.8118C75.5594 43.7405 75.5217 43.6762 75.4661 43.6298C75.4104 43.5834 75.3403 43.558 75.2679 43.5578H74.3063C74.2647 43.5579 74.2237 43.5672 74.1861 43.5851C74.1486 43.6029 74.1154 43.6289 74.0891 43.661C74.0625 43.6933 74.0433 43.7311 74.033 43.7717C74.0227 43.8122 74.0214 43.8546 74.0294 43.8957C74.3027 45.272 74.4757 46.6266 74.5611 48.0341H70.5482C70.3612 48.0341 70.2093 48.1855 70.2093 48.3717V49.239C70.2094 49.3289 70.2451 49.415 70.3086 49.4786C70.3722 49.5422 70.4583 49.578 70.5482 49.5781H74.6185C74.6211 49.7922 74.6232 49.9838 74.6232 50.1637C74.6232 51.4136 74.5693 52.4433 74.4433 53.6053C74.4384 53.6495 74.443 53.6943 74.4569 53.7366C74.4707 53.7789 74.4935 53.8177 74.5236 53.8504C74.5528 53.8832 74.5886 53.9094 74.6286 53.9274C74.6687 53.9454 74.7121 53.9547 74.756 53.9547H75.6478C75.7316 53.9548 75.8124 53.9237 75.8745 53.8675C75.9366 53.8112 75.9755 53.7338 75.9835 53.6504C76.1054 52.4806 76.1576 51.4381 76.1576 50.1636C76.1576 49.9845 76.1557 49.7921 76.153 49.5781H80.2672C80.4537 49.5781 80.606 49.4256 80.606 49.2389V48.3716C80.6058 48.2818 80.5701 48.1957 80.5066 48.1322C80.4431 48.0686 80.357 48.0329 80.2672 48.0327Z" fill="white"/>
<path d="M24.4842 36.4107C24.4551 36.4538 24.4364 36.503 24.4296 36.5545C24.4227 36.606 24.4279 36.6584 24.4448 36.7076C24.4617 36.7568 24.4896 36.8015 24.5263 36.8383C24.563 36.8752 24.6076 36.9032 24.6568 36.9203L25.4045 37.1719C25.4479 37.1859 25.4931 37.1932 25.5387 37.1935C25.607 37.1936 25.6742 37.1769 25.7345 37.1448C25.7948 37.1128 25.8463 37.0664 25.8844 37.0097C28.3336 33.4117 31.6483 30.4159 35.4708 28.3462C39.417 26.2092 43.8881 25.0789 48.402 25.0789C53.8541 25.0789 59.1146 26.6872 63.6152 29.7295C68.0065 32.6971 71.417 36.8374 73.478 41.7029C73.5079 41.774 73.5582 41.8346 73.6225 41.8772C73.6868 41.9198 73.7622 41.9425 73.8393 41.9424H74.7323C74.7833 41.9423 74.8334 41.9296 74.8784 41.9056C74.9233 41.8816 74.9617 41.8469 74.9902 41.8046C75.0188 41.7623 75.0366 41.7136 75.042 41.6628C75.0473 41.612 75.04 41.5607 75.0208 41.5133C72.8956 36.2819 69.302 31.8222 64.627 28.6183C59.8412 25.3381 54.2306 23.604 48.402 23.604C38.7661 23.604 29.8246 28.3917 24.4842 36.4107Z" fill="white"/>
<defs>
<filter id="filter0_d_1_364" x="0.142353" y="0.792847" width="92.184" height="92.1839" filterUnits="userSpaceOnUse" color-interpolation-filters="sRGB">
<feFlood flood-opacity="0" result="BackgroundImageFix"/>
<feColorMatrix in="SourceAlpha" type="matrix" values="0 0 0 0 0 0 0 0 0 0 0 0 0 0 0 0 0 0 127 0" result="hardAlpha"/>
<feOffset dy="5.171"/>
<feGaussianBlur stdDeviation="2.5855"/>
<feComposite in2="hardAlpha" operator="out"/>
<feColorMatrix type="matrix" values="0 0 0 0 0 0 0 0 0 0 0 0 0 0 0 0 0 0 0.25 0"/>
<feBlend mode="normal" in2="BackgroundImageFix" result="effect1_dropShadow_1_364"/>
<feBlend mode="normal" in="SourceGraphic" in2="effect1_dropShadow_1_364" result="shape"/>
</filter>
<linearGradient id="paint0_linear_1_364" x1="79.5719" y1="9.17018" x2="32.2022" y2="93.6245" gradientUnits="userSpaceOnUse">
<stop stop-color="#101C50"/>
<stop offset="0.236" stop-color="#0D267A"/>
<stop offset="0.497" stop-color="#085AA4"/>
<stop offset="0.655" stop-color="#058BBF"/>
<stop offset="1" stop-color="#B1FFFF"/>
</linearGradient>
</defs>
</svg>
