<svg width="219" height="65" viewBox="0 0 219 65" fill="none" xmlns="http://www.w3.org/2000/svg">
<path d="M217.295 57.0929C217.295 57.9059 217.135 58.711 216.823 59.462C216.512 60.2131 216.055 60.8954 215.48 61.47C214.905 62.0446 214.222 62.5002 213.47 62.8107C212.719 63.1213 211.913 63.2807 211.1 63.2798H8.36427C6.72109 63.2815 5.14451 62.6307 3.98124 61.4705C2.81797 60.3102 2.16327 58.7356 2.16113 57.0929V7.75388C2.16327 6.11039 2.81771 4.53492 3.98075 3.3734C5.14378 2.21189 6.72035 1.55926 8.36427 1.55884H211.098C211.912 1.55884 212.718 1.71909 213.469 2.03044C214.221 2.34179 214.904 2.79814 215.479 3.37342C216.055 3.9487 216.511 4.63165 216.822 5.38326C217.133 6.13487 217.294 6.94041 217.293 7.75388L217.295 57.0929Z" fill="white"/>
<path d="M211.101 64.7189H8.36565C6.34144 64.7184 4.40007 63.9152 2.96753 62.4855C1.53498 61.0557 0.728278 59.1163 0.724426 57.0926L0.724426 7.7552C0.727421 5.73053 1.53359 3.7897 2.96609 2.35849C4.39859 0.927284 6.34044 0.122559 8.36565 0.12085L211.1 0.12085C213.125 0.123411 215.066 0.928411 216.498 2.35944C217.931 3.79046 218.737 5.73079 218.741 7.7552V57.0926C218.744 61.2991 215.311 64.7189 211.101 64.7189Z" fill="#A6A6A6"/>
<path d="M217.295 57.0929C217.295 57.9059 217.135 58.711 216.823 59.462C216.512 60.2131 216.055 60.8954 215.48 61.47C214.905 62.0446 214.222 62.5002 213.47 62.8107C212.719 63.1213 211.913 63.2807 211.1 63.2798H8.36427C6.72109 63.2815 5.14451 62.6307 3.98124 61.4705C2.81797 60.3102 2.16327 58.7356 2.16113 57.0929V7.75388C2.16327 6.11039 2.81771 4.53492 3.98075 3.3734C5.14378 2.21189 6.72035 1.55926 8.36427 1.55884H211.098C211.912 1.55884 212.718 1.71909 213.469 2.03044C214.221 2.34179 214.904 2.79814 215.479 3.37342C216.055 3.9487 216.511 4.63165 216.822 5.38326C217.133 6.13487 217.294 6.94041 217.293 7.75388L217.295 57.0929Z" fill="black"/>
<path d="M49.4053 32.0801C49.3584 26.8737 53.6695 24.3408 53.8666 24.2228C51.4251 20.6641 47.6408 20.1779 46.311 20.1391C43.1327 19.8047 40.0497 22.0404 38.4306 22.0404C36.7793 22.0404 34.2861 20.1714 31.5989 20.2264C28.1411 20.2797 24.9062 22.2811 23.132 25.3892C19.4706 31.7264 22.2013 41.0391 25.7093 46.1615C27.464 48.6718 29.5145 51.4713 32.1984 51.3728C34.8241 51.2662 35.8049 49.7008 38.9736 49.7008C42.1131 49.7008 43.0341 51.3728 45.7713 51.3098C48.5893 51.2662 50.3635 48.7898 52.0569 46.2584C54.0847 43.3847 54.8991 40.5513 54.9314 40.4059C54.8668 40.3832 49.4602 38.3188 49.4053 32.0801ZM44.2347 16.7694C45.6469 15.0038 46.6132 12.6017 46.3449 10.1641C44.3009 10.2545 41.7447 11.5775 40.2727 13.3044C38.9703 14.8261 37.8069 17.3203 38.1075 19.6658C40.4036 19.837 42.761 18.5076 44.2347 16.7694Z" fill="white"/>
<path d="M211.102 0.12085H102.51L145.044 64.7189H211.102C213.126 64.7171 215.068 63.9129 216.5 62.4824C217.933 61.0518 218.739 59.1119 218.743 57.0877V7.7552C218.74 5.73066 217.933 3.79008 216.501 2.35897C215.069 0.927848 213.127 0.122985 211.102 0.12085Z" fill="url(#paint0_linear_1_404)"/>
<path d="M87.4349 51.0119H83.7654L81.7553 44.6974H74.7685L72.8537 51.0119H69.2811L76.2049 29.5143H80.4804L87.4349 51.0119ZM81.1493 42.0481L79.3315 36.4346C79.1393 35.8612 78.7773 34.5107 78.2473 32.3848H78.1827C77.9694 33.2991 77.6285 34.6496 77.1615 36.4346L75.3744 42.0481H81.1493ZM105.206 43.0707C105.206 45.707 104.49 47.7908 103.057 49.3206C101.774 50.6824 100.179 51.3625 98.2771 51.3625C96.2234 51.3625 94.7465 50.6307 93.8497 49.1639V57.2974H90.4048V40.6056C90.4048 38.9498 90.3611 37.252 90.2771 35.5106H93.3068L93.4991 37.9676H93.5637C94.7126 36.1164 96.456 35.1908 98.7957 35.1908C100.625 35.1908 102.152 35.9129 103.373 37.3586C104.593 38.8076 105.206 40.7106 105.206 43.0707ZM101.696 43.1967C101.696 41.6879 101.357 40.444 100.675 39.4635C99.93 38.4442 98.9299 37.9337 97.676 37.9337C96.826 37.9337 96.0537 38.218 95.3637 38.7786C94.6722 39.344 94.2197 40.0822 94.0081 40.9965C93.9136 41.3384 93.8599 41.6903 93.8481 42.0449V44.6311C93.8481 45.7571 94.1939 46.7085 94.8855 47.4872C95.577 48.2625 96.4754 48.6519 97.5806 48.6519C98.8781 48.6519 99.888 48.1495 100.61 47.1528C101.334 46.1528 101.696 44.8347 101.696 43.1967ZM123.04 43.0707C123.04 45.707 122.324 47.7908 120.89 49.3206C119.606 50.6824 118.013 51.3625 116.109 51.3625C114.056 51.3625 112.579 50.6307 111.682 49.1639V57.2974H108.237V40.6056C108.237 38.9498 108.193 37.252 108.109 35.5106H111.139L111.331 37.9676H111.396C112.543 36.1164 114.287 35.1908 116.628 35.1908C118.455 35.1908 119.982 35.9129 121.207 37.3586C122.426 38.8076 123.04 40.7106 123.04 43.0707ZM119.528 43.1967C119.528 41.6879 119.187 40.444 118.506 39.4635C117.761 38.4442 116.764 37.9337 115.51 37.9337C114.66 37.9337 113.888 38.218 113.194 38.7786C112.503 39.344 112.052 40.0822 111.84 40.9965C111.735 41.423 111.679 41.7703 111.679 42.0449V44.6311C111.679 45.7571 112.026 46.7085 112.714 47.4872C113.406 48.2609 114.304 48.6519 115.413 48.6519C116.712 48.6519 117.722 48.1495 118.443 47.1528C119.166 46.1528 119.528 44.8347 119.528 43.1967ZM142.979 44.9817C142.979 46.8119 142.339 48.2997 141.067 49.4482C139.668 50.7018 137.714 51.3302 135.21 51.3302C132.896 51.3302 131.041 50.8843 129.642 49.991L130.438 47.1205C131.949 48.0154 133.609 48.4612 135.415 48.4612C136.714 48.4612 137.724 48.1672 138.445 47.5841C139.167 46.9993 139.532 46.2175 139.532 45.2418C139.532 44.3678 139.23 43.6361 138.637 43.04C138.041 42.4455 137.055 41.8914 135.67 41.3826C131.906 39.9788 130.022 37.9256 130.022 35.2247C130.022 33.4607 130.687 32.0165 132.015 30.8874C133.344 29.7598 135.105 29.196 137.296 29.196C139.253 29.196 140.883 29.5369 142.177 30.217L141.313 33.0245C140.095 32.3654 138.719 32.0359 137.181 32.0359C135.966 32.0359 135.013 32.3348 134.331 32.9292C133.757 33.4607 133.466 34.1085 133.466 34.8774C133.466 35.7255 133.798 36.4298 134.457 36.9822C135.029 37.4911 136.073 38.0452 137.582 38.6396C139.434 39.386 140.794 40.255 141.665 41.2533C142.543 42.2517 142.979 43.4971 142.979 44.9817ZM154.398 38.0953H150.601V45.6214C150.601 47.5356 151.27 48.4903 152.611 48.4903C153.226 48.4903 153.737 48.4386 154.141 48.3304L154.236 50.9457C153.558 51.1993 152.664 51.3269 151.557 51.3269C150.197 51.3269 149.133 50.9118 148.366 50.0815C147.602 49.2512 147.217 47.8603 147.217 45.9025V38.0888H144.955V35.5042H147.217V32.6659L150.601 31.645V35.5042H154.398V38.0953ZM171.496 43.1337C171.496 45.5164 170.815 47.4726 169.454 49.0024C168.031 50.5774 166.137 51.3625 163.776 51.3625C161.498 51.3625 159.686 50.6081 158.336 49.1009C156.985 47.5905 156.309 45.6876 156.309 43.3921C156.309 40.99 157.007 39.0225 158.399 37.4927C159.793 35.9613 161.671 35.1956 164.031 35.1956C166.306 35.1956 168.134 35.9516 169.517 37.4604C170.839 38.9239 171.496 40.814 171.496 43.1337ZM167.925 43.2128C167.925 41.7929 167.618 40.5749 167.003 39.5556C166.281 38.3246 165.246 37.7092 163.907 37.7092C162.527 37.7092 161.469 38.3246 160.748 39.5556C160.131 40.5749 159.824 41.8139 159.824 43.2774C159.824 44.699 160.131 45.9202 160.748 46.9363C161.493 48.1672 162.532 48.7827 163.878 48.7827C165.195 48.7827 166.227 48.1543 166.974 46.9056C167.607 45.8621 167.925 44.636 167.925 43.2128ZM182.699 38.5395C182.341 38.4748 181.977 38.4429 181.613 38.4442C180.401 38.4442 179.464 38.8997 178.805 39.8173C178.233 40.625 177.945 41.6459 177.945 42.8784V51.0119H174.5V40.3923C174.503 38.7651 174.47 37.138 174.4 35.5122H177.401L177.527 38.4781H177.622C177.987 37.4588 178.559 36.6366 179.344 36.0211C180.063 35.4833 180.937 35.192 181.834 35.1908C182.153 35.1908 182.44 35.2134 182.696 35.2538L182.699 38.5395ZM198.106 42.5279C198.115 43.0514 198.072 43.5746 197.98 44.09H187.645C187.684 45.6214 188.185 46.7941 189.144 47.6018C190.015 48.3223 191.142 48.6842 192.525 48.6842C194.055 48.6842 195.451 48.4419 196.707 47.9524L197.246 50.3416C195.779 50.9813 194.047 51.2995 192.048 51.2995C189.644 51.2995 187.756 50.5919 186.383 49.1801C185.013 47.7666 184.326 45.8669 184.326 43.4874C184.326 41.1516 184.964 39.205 186.242 37.6526C187.58 35.9952 189.388 35.1665 191.664 35.1665C193.898 35.1665 195.59 35.9952 196.739 37.6526C197.649 38.9659 198.106 40.5943 198.106 42.5279ZM194.821 41.6346C194.845 40.612 194.619 39.7316 194.152 38.9869C193.556 38.0274 192.638 37.5492 191.408 37.5492C190.282 37.5492 189.364 38.0161 188.666 38.953C188.093 39.6977 187.752 40.5927 187.647 41.6314L194.821 41.6346Z" fill="white"/>
<path d="M74.3949 17.9899C74.3949 18.8202 74.2352 19.5143 73.9159 20.0723C73.5999 20.627 73.1411 21.0455 72.5394 21.3278C71.9377 21.6068 71.2133 21.7463 70.3662 21.7463H68.2788V14.3747H70.5931C71.3663 14.3747 72.0369 14.5125 72.6049 14.7882C73.173 15.0605 73.6134 15.4655 73.926 16.0033C74.2386 16.5378 74.3949 17.2 74.3949 17.9899ZM72.7713 18.0303C72.7713 17.4857 72.6907 17.0387 72.5293 16.6891C72.3713 16.3361 72.136 16.0756 71.8234 15.9075C71.5142 15.7395 71.131 15.6554 70.6738 15.6554H69.8418V20.4555H70.5124C71.2755 20.4555 71.8419 20.2522 72.2117 19.8454C72.5848 19.4387 72.7713 18.8337 72.7713 18.0303ZM75.9227 21.7463V14.3747H77.4857V21.7463H75.9227ZM83.6926 19.6992C83.6926 20.1362 83.5867 20.5161 83.375 20.8388C83.1632 21.1614 82.8539 21.4102 82.4472 21.585C82.0438 21.7598 81.5531 21.8472 80.9749 21.8472C80.7194 21.8472 80.469 21.8304 80.2236 21.7968C79.9816 21.7631 79.748 21.7144 79.5228 21.6505C79.3009 21.5833 79.0891 21.501 78.8874 21.4035V19.9513C79.237 20.106 79.6001 20.2455 79.9766 20.3698C80.353 20.4942 80.7262 20.5564 81.0959 20.5564C81.3514 20.5564 81.5564 20.5228 81.7111 20.4555C81.869 20.3883 81.9833 20.2959 82.0539 20.1782C82.1245 20.0606 82.1598 19.9261 82.1598 19.7749C82.1598 19.59 82.0976 19.432 81.9732 19.3009C81.8489 19.1698 81.6774 19.0471 81.4589 18.9328C81.2438 18.8185 81.0001 18.6958 80.7278 18.5647C80.5564 18.4841 80.3698 18.3866 80.1682 18.2723C79.9665 18.1547 79.7749 18.0118 79.5933 17.8437C79.4118 17.6756 79.2622 17.4723 79.1446 17.2336C79.0303 16.9916 78.9732 16.7025 78.9732 16.3664C78.9732 15.926 79.074 15.5495 79.2757 15.2369C79.4774 14.9243 79.7648 14.6857 80.1379 14.5209C80.5144 14.3529 80.9581 14.2688 81.469 14.2688C81.8522 14.2688 82.2169 14.3142 82.5632 14.405C82.9128 14.4924 83.2775 14.6201 83.6573 14.7882L83.1531 16.0033C82.8136 15.8655 82.5094 15.7596 82.2405 15.6857C81.9716 15.6084 81.6976 15.5697 81.4186 15.5697C81.2236 15.5697 81.0573 15.6016 80.9194 15.6655C80.7816 15.726 80.6774 15.8134 80.6068 15.9277C80.5362 16.0386 80.5009 16.168 80.5009 16.3159C80.5009 16.4907 80.5514 16.6386 80.6522 16.7597C80.7564 16.8773 80.911 16.9916 81.1161 17.1025C81.3245 17.2135 81.5833 17.3429 81.8926 17.4908C82.269 17.6689 82.5901 17.8555 82.8556 18.0504C83.1245 18.242 83.3313 18.4689 83.4758 18.7311C83.6203 18.99 83.6926 19.3127 83.6926 19.6992ZM87.3835 14.3747C88.3347 14.3747 89.0289 14.5798 89.4659 14.9899C89.9029 15.3966 90.1213 15.958 90.1213 16.6739C90.1213 16.9966 90.0726 17.3059 89.9751 17.6017C89.8776 17.8941 89.718 18.1547 89.4961 18.3832C89.2776 18.6118 88.9852 18.7933 88.6188 18.9278C88.2524 19.0589 87.8003 19.1244 87.2625 19.1244H86.5918V21.7463H85.0288V14.3747H87.3835ZM87.3028 15.6554H86.5918V17.8437H87.1061C87.3986 17.8437 87.6524 17.8051 87.8675 17.7277C88.0826 17.6504 88.249 17.5294 88.3667 17.3647C88.4843 17.2 88.5432 16.9882 88.5432 16.7294C88.5432 16.3664 88.4423 16.0975 88.2406 15.9227C88.0389 15.7445 87.7263 15.6554 87.3028 15.6554ZM98.2039 18.0504C98.2039 18.6185 98.1333 19.1362 97.9921 19.6034C97.851 20.0673 97.6358 20.4673 97.3467 20.8035C97.061 21.1396 96.698 21.3984 96.2576 21.5799C95.8173 21.7581 95.2963 21.8472 94.6946 21.8472C94.0929 21.8472 93.5719 21.7581 93.1315 21.5799C92.6912 21.3984 92.3264 21.1396 92.0374 20.8035C91.7516 20.4673 91.5382 20.0656 91.397 19.5984C91.2558 19.1311 91.1852 18.6118 91.1852 18.0404C91.1852 17.2773 91.3096 16.6134 91.5584 16.0487C91.8105 15.4806 92.197 15.0403 92.718 14.7277C93.2391 14.4151 93.9013 14.2588 94.7047 14.2588C95.5047 14.2588 96.1618 14.4151 96.6761 14.7277C97.1938 15.0403 97.577 15.4806 97.8257 16.0487C98.0778 16.6168 98.2039 17.284 98.2039 18.0504ZM92.8239 18.0504C92.8239 18.5647 92.8878 19.0085 93.0155 19.3816C93.1466 19.7513 93.35 20.0371 93.6256 20.2387C93.9013 20.4371 94.2576 20.5362 94.6946 20.5362C95.1383 20.5362 95.498 20.4371 95.7736 20.2387C96.0492 20.0371 96.2492 19.7513 96.3736 19.3816C96.5013 19.0085 96.5652 18.5647 96.5652 18.0504C96.5652 17.2773 96.4207 16.6689 96.1316 16.2252C95.8425 15.7815 95.3669 15.5596 94.7047 15.5596C94.2643 15.5596 93.9046 15.6605 93.6256 15.8622C93.35 16.0605 93.1466 16.3462 93.0155 16.7193C92.8878 17.0891 92.8239 17.5328 92.8239 18.0504ZM106.271 21.7463H104.285L101.078 16.1697H101.033C101.046 16.4017 101.058 16.6353 101.068 16.8706C101.078 17.1059 101.088 17.3412 101.098 17.5765C101.108 17.8084 101.118 18.042 101.128 18.2773V21.7463H99.7317V14.3747H101.703L104.905 19.8959H104.94C104.933 19.6673 104.925 19.4404 104.915 19.2152C104.905 18.99 104.895 18.7648 104.885 18.5395C104.878 18.3143 104.871 18.0891 104.865 17.8639V14.3747H106.271V21.7463ZM108.132 21.7463V14.3747H109.695V21.7463H108.132ZM111.55 14.3747H113.845C114.826 14.3747 115.569 14.5125 116.073 14.7882C116.577 15.0638 116.83 15.5479 116.83 16.2403C116.83 16.5193 116.784 16.7714 116.693 16.9966C116.606 17.2219 116.478 17.4067 116.31 17.5513C116.142 17.6958 115.937 17.7899 115.695 17.8336V17.8841C115.94 17.9345 116.162 18.0219 116.361 18.1462C116.559 18.2673 116.717 18.4454 116.835 18.6807C116.956 18.9127 117.016 19.2219 117.016 19.6085C117.016 20.0555 116.907 20.4387 116.688 20.7581C116.47 21.0774 116.157 21.3228 115.751 21.4942C115.347 21.6623 114.867 21.7463 114.309 21.7463H111.55V14.3747ZM113.114 17.2941H114.021C114.475 17.2941 114.789 17.2235 114.964 17.0824C115.139 16.9378 115.226 16.726 115.226 16.447C115.226 16.1647 115.122 15.963 114.914 15.842C114.709 15.7176 114.382 15.6554 113.935 15.6554H113.114V17.2941ZM113.114 18.5345V20.4555H114.132C114.603 20.4555 114.93 20.3648 115.115 20.1833C115.3 20.0018 115.393 19.7581 115.393 19.4522C115.393 19.2706 115.352 19.111 115.272 18.9732C115.191 18.8353 115.055 18.7278 114.863 18.6505C114.675 18.5731 114.414 18.5345 114.082 18.5345H113.114ZM118.488 21.7463V14.3747H120.052V20.4555H123.042V21.7463H118.488ZM128.573 21.7463H124.327V14.3747H128.573V15.6554H125.89V17.274H128.386V18.5547H125.89V20.4555H128.573V21.7463ZM137.044 21.7463H132.798V14.3747H137.044V15.6554H134.361V17.274H136.857V18.5547H134.361V20.4555H137.044V21.7463ZM145.126 21.7463H143.139L139.933 16.1697H139.887C139.901 16.4017 139.913 16.6353 139.923 16.8706C139.933 17.1059 139.943 17.3412 139.953 17.5765C139.963 17.8084 139.973 18.042 139.983 18.2773V21.7463H138.586V14.3747H140.558L143.76 19.8959H143.795C143.788 19.6673 143.78 19.4404 143.77 19.2152C143.76 18.99 143.75 18.7648 143.74 18.5395C143.733 18.3143 143.726 18.0891 143.719 17.8639V14.3747H145.126V21.7463Z" fill="white"/>
<defs>
<linearGradient id="paint0_linear_1_404" x1="160.625" y1="64.8904" x2="160.625" y2="-168.081" gradientUnits="userSpaceOnUse">
<stop stop-color="#1A1A1A" stop-opacity="0.1"/>
<stop offset="0.123" stop-color="#212121" stop-opacity="0.151"/>
<stop offset="0.308" stop-color="#353535" stop-opacity="0.227"/>
<stop offset="0.532" stop-color="#575757" stop-opacity="0.318"/>
<stop offset="0.783" stop-color="#858585" stop-opacity="0.421"/>
<stop offset="1" stop-color="#B3B3B3" stop-opacity="0.51"/>
</linearGradient>
</defs>
</svg>
