<svg width="51" height="51" viewBox="0 0 51 51" fill="none" xmlns="http://www.w3.org/2000/svg">
<path d="M25.5 1.84717C38.4554 1.84717 48.958 12.3497 48.958 25.3052C48.958 38.2606 38.4554 48.7632 25.5 48.7632C12.5446 48.7632 2.04199 38.2606 2.04199 25.3052C2.04199 12.3497 12.5446 1.84717 25.5 1.84717Z" stroke="#005A96" stroke-width="3.08417"/>
<path d="M10.3921 24.1194C10.3921 15.7947 17.0579 9.04614 25.2806 9.04614C33.5035 9.04614 40.1693 15.7947 40.1693 24.1194V31.9263C40.1697 33.1426 40.17 33.9766 39.9562 34.7089C39.5382 36.1408 38.5385 37.3252 37.2066 37.9666C36.5254 38.2948 35.7116 38.4245 34.5248 38.6137L34.3314 38.6447C33.9093 38.7121 33.5487 38.7697 33.2495 38.7995C32.9382 38.8305 32.6207 38.84 32.296 38.7752C31.2276 38.5622 30.3465 37.8 29.9719 36.7647C29.8581 36.4501 29.8179 36.131 29.7995 35.8149C29.7819 35.5112 29.7819 35.1415 29.7819 34.709L29.7818 28.4969C29.781 27.8633 29.7804 27.3183 29.9253 26.8515C30.2569 25.7834 31.1228 24.9733 32.2006 24.7227C32.6716 24.6131 33.2084 24.6568 33.8321 24.7074L33.9708 24.7186L34.1343 24.7317C35.3011 24.8244 36.0995 24.888 36.7772 25.1417C37.2535 25.3201 37.6951 25.5656 38.0919 25.8668V24.1194C38.0919 16.9563 32.356 11.1494 25.2806 11.1494C18.2053 11.1494 12.4696 16.9563 12.4696 24.1194V25.8668C12.8662 25.5656 13.3079 25.3201 13.7842 25.1417C14.4618 24.888 15.2602 24.8244 16.427 24.7317L16.5905 24.7186L16.7293 24.7074C17.3531 24.6568 17.8897 24.6131 18.3609 24.7227C19.4386 24.9733 20.3045 25.7834 20.6361 26.8515C20.781 27.3183 20.7804 27.8633 20.7796 28.4969L20.7795 34.709C20.7795 35.1415 20.7795 35.5112 20.7619 35.8149C20.7435 36.131 20.7032 36.4501 20.5894 36.7647C20.215 37.8 19.3338 38.5622 18.2654 38.7752C17.9407 38.84 17.6231 38.8305 17.3119 38.7995C17.0127 38.7697 16.652 38.7121 16.23 38.6447L16.0365 38.6137C14.8497 38.4245 14.0359 38.2948 13.3548 37.9666C12.0229 37.3252 11.0232 36.1408 10.6051 34.7089C10.4288 34.1051 10.3981 33.432 10.393 32.5326L10.3921 32.2431V24.1194Z" fill="#005A96"/>
</svg>
