<svg width="596" height="90" viewBox="0 0 596 90" fill="none" xmlns="http://www.w3.org/2000/svg">
<rect x="292.542" y="1.43087" width="302.029" height="86.6595" rx="12.8779" stroke="#00CCBA" stroke-width="2.86175"/>
<path fill-rule="evenodd" clip-rule="evenodd" d="M555.568 33.9702H561.838V61.0243H555.568V33.9702Z" fill="white"/>
<path fill-rule="evenodd" clip-rule="evenodd" d="M543.3 61.0243L543.232 44.8055L535.259 58.1621H532.465L524.492 45.1462V61.0243H518.631V33.9702H523.81L533.964 50.8024L543.913 33.9702H549.092L549.16 61.0243H543.3Z" fill="white"/>
<path fill-rule="evenodd" clip-rule="evenodd" d="M505.957 33.9702H512.226V61.0243H505.957V33.9702Z" fill="white"/>
<path fill-rule="evenodd" clip-rule="evenodd" d="M494.715 61.0243L489.536 53.5282H489.196H486.333V61.0243H480.064V33.9702H489.196C491.603 33.9702 493.693 34.3564 495.465 35.1287C497.237 35.9465 498.6 37.0823 499.554 38.536C500.508 40.0353 500.985 41.7843 500.985 43.7833C500.985 45.7823 500.508 47.5086 499.554 48.9624C498.554 50.4616 497.169 51.5974 495.397 52.3697L501.462 61.0243H494.715ZM494.579 43.7833C494.579 42.2841 494.102 41.1256 493.148 40.3078C492.149 39.4901 490.717 39.0812 488.855 39.0812H486.333V48.4854H488.855C490.717 48.4854 492.149 48.0765 493.148 47.2588C494.102 46.441 494.579 45.2825 494.579 43.7833Z" fill="white"/>
<path fill-rule="evenodd" clip-rule="evenodd" d="M463.093 39.0812H456.21V33.9702H476.041V39.0812H469.363V61.0243H463.093V39.0812Z" fill="white"/>
<path d="M438.834 28.1104C436.04 22.1136 430.929 19.524 429.43 18.8425C429.339 18.7971 429.248 18.7517 429.157 18.7063C425.545 17.0026 422.342 16.8663 421.048 16.8663C419.821 16.8663 418.731 16.9344 417.708 17.1389C415.596 17.4796 414.029 18.0929 413.279 18.3655C408.713 20.3418 406.396 23.4083 406.328 23.4765C406.26 23.4083 403.943 20.3418 399.377 18.3655C398.628 18.0929 397.06 17.4796 394.948 17.1389C393.925 16.9344 392.835 16.8663 391.609 16.8663C390.382 16.8663 387.179 17.0026 383.567 18.7063C383.431 18.7517 383.317 18.7971 383.227 18.8425C381.727 19.524 376.616 22.1136 373.822 28.1104C371.505 33.1532 372.187 37.7191 372.391 39.2183C373.413 45.8284 377.434 49.8491 378.797 51.1439L383.567 55.9141L394.948 67.2945L404.965 77.3801C404.965 77.3801 405.442 77.789 405.647 77.9253C405.737 78.0162 405.828 78.0843 405.919 78.1297C406.056 78.1297 406.192 78.1979 406.328 78.1297C406.533 78.1297 406.737 78.1297 406.805 78.0616C406.896 78.0616 406.987 78.0162 407.078 77.9253C407.214 77.789 407.691 77.3801 407.691 77.3801L417.708 67.2945L429.157 55.9141L433.859 51.1439C435.222 49.8491 439.243 45.8284 440.265 39.2183C440.537 37.7191 441.151 33.1532 438.834 28.1104Z" fill="url(#paint0_linear_1_259)"/>
<path fill-rule="evenodd" clip-rule="evenodd" d="M404.354 33.632L416.688 43.8539C417.097 44.2628 417.37 44.6717 417.37 45.1487C417.37 45.1942 417.37 45.2396 417.37 45.285C417.37 45.3305 417.37 45.3759 417.37 45.4213C417.37 45.8983 417.097 46.3754 416.688 46.7161L404.354 57.0062C403.536 57.6195 402.582 58.3691 401.423 58.0965C400.469 57.8239 400.265 57.0743 400.197 56.3928V45.4213V45.1487V34.1772C400.265 33.4957 400.469 32.7461 401.423 32.5417C402.582 32.2691 403.536 32.9506 404.354 33.632Z" fill="white"/>
<path d="M315.753 6.10352e-05C321.485 0.000234496 326.132 4.64694 326.132 10.379V14.3018C325.702 14.2816 325.269 14.2716 324.834 14.2715C309.787 14.2715 297.588 26.4695 297.588 41.5167C297.588 56.564 309.787 68.7628 324.834 68.7628C325.269 68.7627 325.702 68.7517 326.132 68.7315V79.1417C326.132 84.8739 321.485 89.5214 315.753 89.5215H10.3809C4.17497 89.5215 -0.644352 84.111 0.0703935 77.9464L8.04305 9.18365C8.65012 3.94902 13.0838 6.10352e-05 18.3536 6.10352e-05H315.753Z" fill="#009DFF"/>
<ellipse cx="324.474" cy="41.1521" rx="21.691" ry="21.691" fill="#00E3D0"/>
<path d="M322.501 54.2935C322.151 54.2935 321.864 54.182 321.641 53.9589C321.418 53.7359 321.307 53.4491 321.307 53.0986V44.3524H312.799C312.449 44.3524 312.146 44.2409 311.891 44.0179C311.668 43.7948 311.557 43.5081 311.557 43.1576V39.6687C311.557 39.3182 311.668 39.0314 311.891 38.8084C312.146 38.5854 312.449 38.4738 312.799 38.4738H321.307V29.9666C321.307 29.6161 321.418 29.3293 321.641 29.1063C321.864 28.8833 322.151 28.7718 322.501 28.7718H326.421C326.739 28.7718 327.01 28.8833 327.233 29.1063C327.488 29.3293 327.615 29.6161 327.615 29.9666V38.4738H336.075C336.425 38.4738 336.712 38.5854 336.935 38.8084C337.158 39.0314 337.27 39.3182 337.27 39.6687V43.1576C337.27 43.5081 337.158 43.7948 336.935 44.0179C336.712 44.2409 336.425 44.3524 336.075 44.3524H327.615V53.0986C327.615 53.4491 327.488 53.7359 327.233 53.9589C327.01 54.182 326.739 54.2935 326.421 54.2935H322.501Z" fill="white"/>
<path d="M41.4484 65.2715C40.8817 65.2715 40.6362 65.0071 40.7117 64.4782L46.3216 28.9494C46.3971 28.4206 46.6615 28.1561 47.1149 28.1561H54.6513C55.2179 28.1561 55.4635 28.4206 55.3879 28.9494L49.7781 64.4782C49.7025 65.0071 49.4381 65.2715 48.9848 65.2715H41.4484ZM54.8421 65.2715C54.2754 65.2715 54.0299 65.0071 54.1054 64.4782L59.7152 28.9494C59.7908 28.4206 60.0552 28.1561 60.5085 28.1561H69.8582C70.1982 28.1561 70.4249 28.2317 70.5382 28.3828C70.6893 28.4961 70.8026 28.685 70.8782 28.9494L75.2414 41.529C75.9213 43.5689 76.5447 45.59 77.1113 47.5921C77.678 49.5943 78.1879 51.4075 78.6413 53.0319H78.8112C78.8868 51.332 79.0001 49.6509 79.1512 47.9888C79.3023 46.2888 79.5101 44.5889 79.7745 42.8889L82.0411 28.9494C82.1167 28.4206 82.3811 28.1561 82.8344 28.1561H90.0875C90.6542 28.1561 90.8997 28.4206 90.8242 28.9494L85.2144 64.4782C85.1388 65.0071 84.8555 65.2715 84.3644 65.2715H74.958C74.5425 65.2715 74.2403 65.0071 74.0514 64.4782L70.1982 53.2586C69.4049 50.992 68.6872 48.7632 68.045 46.5722C67.4028 44.3811 66.8739 42.4545 66.4583 40.7924H66.2317C66.0806 42.5301 65.9106 44.2867 65.7217 46.0622C65.5328 47.8377 65.2873 49.6132 64.9851 51.3887L62.8885 64.4782C62.8129 65.0071 62.5485 65.2715 62.0952 65.2715H54.8421ZM97.8528 65.2715C97.2862 65.2715 97.0406 65.0071 97.1162 64.4782L101.593 36.2025H92.6397C92.3752 36.2025 92.1674 36.1458 92.0163 36.0325C91.903 35.8814 91.8652 35.6736 91.903 35.4092L92.923 28.9494C92.9985 28.4206 93.2819 28.1561 93.7729 28.1561H120.972C121.236 28.1561 121.444 28.2317 121.595 28.3828C121.746 28.4961 121.784 28.685 121.709 28.9494L120.689 35.4092C120.613 35.9381 120.33 36.2025 119.839 36.2025H110.772L106.183 64.4782C106.107 65.0071 105.843 65.2715 105.389 65.2715H97.8528ZM118.813 65.2715C118.322 65.2715 118.114 65.0071 118.19 64.4782L123.799 28.9494C123.875 28.4206 124.177 28.1561 124.706 28.1561H147.655C147.92 28.1561 148.128 28.2317 148.279 28.3828C148.43 28.4961 148.468 28.685 148.392 28.9494L147.372 35.4092C147.296 35.9381 147.032 36.2025 146.579 36.2025H131.789L130.713 42.7756H144.029C144.595 42.7756 144.822 43.0401 144.709 43.5689L143.745 49.632C143.67 50.1609 143.405 50.4254 142.952 50.4254H129.523L128.446 57.2251H143.066C143.594 57.2251 143.821 57.4707 143.745 57.9618L142.782 64.4782C142.669 65.0071 142.404 65.2715 141.989 65.2715H118.813ZM147.094 65.2715C146.565 65.2715 146.338 65.0071 146.414 64.4782L152.023 28.9494C152.099 28.4206 152.363 28.1561 152.817 28.1561H164.83C169.703 28.1561 173.235 29.025 175.426 30.7627C177.617 32.5004 178.712 34.937 178.712 38.0724C178.712 41.1701 177.995 43.7767 176.559 45.8922C175.124 47.9699 173.046 49.4432 170.326 50.312V50.4254L176.729 64.4782C176.805 64.6293 176.786 64.7993 176.673 64.9882C176.597 65.1771 176.408 65.2715 176.106 65.2715H167.776C167.361 65.2715 167.04 65.026 166.813 64.5349L161.43 51.7286H157.52L155.48 64.4782C155.404 65.0071 155.14 65.2715 154.687 65.2715H147.094ZM158.653 44.4189H163.186C165.226 44.4189 166.775 44.0222 167.833 43.2289C168.891 42.4356 169.419 41.1512 169.419 39.3757C169.419 38.1669 169.004 37.3169 168.173 36.8258C167.38 36.3347 166.095 36.0892 164.32 36.0892H159.956L158.653 44.4189ZM179.469 65.2715C178.902 65.2715 178.657 65.0071 178.732 64.4782L184.342 28.9494C184.418 28.4206 184.682 28.1561 185.136 28.1561H194.485C194.825 28.1561 195.052 28.2317 195.165 28.3828C195.316 28.4961 195.43 28.685 195.505 28.9494L199.868 41.529C200.548 43.5689 201.172 45.59 201.738 47.5921C202.305 49.5943 202.815 51.4075 203.268 53.0319H203.438C203.514 51.332 203.627 49.6509 203.778 47.9888C203.929 46.2888 204.137 44.5889 204.402 42.8889L206.668 28.9494C206.744 28.4206 207.008 28.1561 207.461 28.1561H214.715C215.281 28.1561 215.527 28.4206 215.451 28.9494L209.841 64.4782C209.766 65.0071 209.482 65.2715 208.991 65.2715H199.585C199.169 65.2715 198.867 65.0071 198.678 64.4782L194.825 53.2586C194.032 50.992 193.314 48.7632 192.672 46.5722C192.03 44.3811 191.501 42.4545 191.085 40.7924H190.859C190.708 42.5301 190.538 44.2867 190.349 46.0622C190.16 47.8377 189.914 49.6132 189.612 51.3887L187.515 64.4782C187.44 65.0071 187.175 65.2715 186.722 65.2715H179.469ZM214.773 65.2715C214.282 65.2715 214.075 65.0071 214.15 64.4782L219.76 28.9494C219.835 28.4206 220.138 28.1561 220.667 28.1561H243.616C243.88 28.1561 244.088 28.2317 244.239 28.3828C244.39 28.4961 244.428 28.685 244.352 28.9494L243.332 35.4092C243.257 35.9381 242.992 36.2025 242.539 36.2025H227.75L226.673 42.7756H239.989C240.556 42.7756 240.782 43.0401 240.669 43.5689L239.706 49.632C239.63 50.1609 239.366 50.4254 238.913 50.4254H225.483L224.406 57.2251H239.026C239.555 57.2251 239.781 57.4707 239.706 57.9618L238.743 64.4782C238.629 65.0071 238.365 65.2715 237.949 65.2715H214.773ZM250.704 65.2715C250.137 65.2715 249.891 65.0071 249.967 64.4782L254.444 36.2025H245.491C245.226 36.2025 245.018 36.1458 244.867 36.0325C244.754 35.8814 244.716 35.6736 244.754 35.4092L245.774 28.9494C245.849 28.4206 246.133 28.1561 246.624 28.1561H273.823C274.087 28.1561 274.295 28.2317 274.446 28.3828C274.597 28.4961 274.635 28.685 274.56 28.9494L273.54 35.4092C273.464 35.9381 273.181 36.2025 272.69 36.2025H263.623L259.033 64.4782C258.958 65.0071 258.693 65.2715 258.24 65.2715H250.704Z" fill="white"/>
<defs>
<linearGradient id="paint0_linear_1_259" x1="372.138" y1="16.8506" x2="440.54" y2="16.8506" gradientUnits="userSpaceOnUse">
<stop offset="0.034" stop-color="#FFC400"/>
<stop offset="0.169" stop-color="#FF7400"/>
<stop offset="0.358" stop-color="#FF0000"/>
<stop offset="0.526" stop-color="#D632EA"/>
<stop offset="0.671" stop-color="#136DEA"/>
<stop offset="0.855" stop-color="#13C2EA"/>
<stop offset="1" stop-color="#3BE28A"/>
</linearGradient>
</defs>
</svg>
