<svg width="601" height="80" viewBox="0 0 601 80" fill="none" xmlns="http://www.w3.org/2000/svg">
<path d="M0.842904 73.0664L8.75226 43.7169H16.7923L13.0011 73.0664H0.842904ZM14.6352 39.1412C12.8486 39.1412 11.3887 38.6183 10.2557 37.5724C9.16624 36.5266 8.62152 35.241 8.62152 33.7158C8.62152 32.5392 8.90478 31.4715 9.47129 30.5128C10.0378 29.5541 10.8222 28.7915 11.8245 28.225C12.8703 27.6149 14.0034 27.3099 15.2235 27.3099C16.9666 27.3099 18.3829 27.8546 19.4724 28.944C20.6054 29.9899 21.1719 31.2972 21.1719 32.866C21.1719 34.6527 20.54 36.1561 19.2763 37.3763C18.0125 38.5529 16.4655 39.1412 14.6352 39.1412ZM17.9077 63L27.059 17.2434H37.7137L30.2619 54.3716H53.2056L51.4407 63H17.9077ZM45.716 63L75.2617 17.2434H85.7857L97.0287 63H86.4394L77.5495 22.4728H81.733L57.0244 63H45.716ZM57.9395 53.195L62.2537 45.1549H85.8511L87.093 53.195H57.9395ZM108.522 63L117.673 17.2434H126.302L139.31 49.6652L134.734 49.5999L160.096 17.2434H169.182L160.096 63H150.16L156.24 32.3431H158.266L138.068 58.1629H133.361L122.576 32.2777L124.537 32.4738L118.458 63H108.522ZM180.3 35.6768H202.328L200.694 43.913H178.665L180.3 35.6768ZM177.293 54.5024H202.263L200.498 63H165.069L174.22 17.2434H208.799L207.034 25.7411H183.045L177.293 54.5024ZM212.845 63.7844C209.359 63.7844 206.352 63.1961 203.825 62.0195C201.297 60.8429 199.336 59.1434 197.942 56.9209L204.936 50.2535C205.851 51.7787 206.984 52.9771 208.335 53.8487C209.686 54.6767 211.233 55.0906 212.976 55.0906C214.981 55.0906 216.615 54.5241 217.879 53.3911C219.186 52.2581 220.079 50.4496 220.559 47.9657L224.938 25.7411H208.858L210.623 17.2434H237.162L231.083 47.4428C230.298 51.4519 229.1 54.6549 227.488 57.0516C225.919 59.4048 223.914 61.1262 221.474 62.2156C219.033 63.2615 216.157 63.7844 212.845 63.7844ZM255.739 63.7844C251.12 63.7844 247.133 62.9564 243.777 61.3005C240.465 59.6009 237.916 57.2695 236.129 54.3063C234.343 51.2994 233.449 47.835 233.449 43.913C233.449 39.991 234.125 36.374 235.476 33.0621C236.826 29.7066 238.744 26.8087 241.228 24.3684C243.755 21.8845 246.74 19.9452 250.183 18.5508C253.669 17.1563 257.526 16.459 261.753 16.459C266.372 16.459 270.338 17.3088 273.65 19.0083C277.005 20.6643 279.576 22.9957 281.363 26.0025C283.15 28.9658 284.043 32.4085 284.043 36.3305C284.043 40.2524 283.367 43.8912 282.017 47.2467C280.666 50.5586 278.726 53.4565 276.199 55.9404C273.715 58.3808 270.73 60.2982 267.244 61.6927C263.801 63.0872 259.966 63.7844 255.739 63.7844ZM256.654 54.7638C259.225 54.7638 261.535 54.3063 263.583 53.3911C265.675 52.4324 267.44 51.1251 268.878 49.4691C270.316 47.8132 271.405 45.9175 272.146 43.7822C272.931 41.6034 273.323 39.3155 273.323 36.9188C273.323 34.6527 272.843 32.6699 271.885 30.9704C270.926 29.2273 269.51 27.8764 267.636 26.9177C265.806 25.959 263.54 25.4796 260.838 25.4796C258.267 25.4796 255.957 25.959 253.909 26.9177C251.861 27.8328 250.096 29.1183 248.614 30.7743C247.176 32.4303 246.065 34.3477 245.281 36.5266C244.54 38.6619 244.169 40.9279 244.169 43.3247C244.169 45.5907 244.649 47.5953 245.607 49.3384C246.61 51.0379 248.026 52.367 249.856 53.3258C251.73 54.2845 253.996 54.7638 256.654 54.7638ZM281.281 63L290.432 17.2434H309.062C314.771 17.2434 319.172 18.4854 322.266 20.9693C325.404 23.4532 326.972 26.9395 326.972 31.428C326.972 35.2628 326.057 38.5965 324.227 41.429C322.44 44.218 319.869 46.3751 316.514 47.9003C313.202 49.4255 309.28 50.1882 304.748 50.1882H289.844L295.4 45.5471L291.936 63H281.281ZM310.696 63L301.349 46.3969H312.461L321.874 63H310.696ZM295.139 46.7891L291.478 41.7559H305.14C308.67 41.7559 311.393 40.9715 313.311 39.4027C315.272 37.7903 316.252 35.4589 316.252 32.4085C316.252 30.186 315.49 28.5518 313.964 27.506C312.483 26.4165 310.391 25.8718 307.689 25.8718H294.812L300.368 20.7079L295.139 46.7891ZM359.823 63.7844C355.203 63.7844 351.216 62.9564 347.861 61.3005C344.549 59.6009 341.999 57.2695 340.213 54.3063C338.426 51.2994 337.533 47.835 337.533 43.913C337.533 39.991 338.208 36.374 339.559 33.0621C340.91 29.7066 342.827 26.8087 345.311 24.3684C347.839 21.8845 350.824 19.9452 354.266 18.5508C357.753 17.1563 361.609 16.459 365.836 16.459C370.456 16.459 374.421 17.3088 377.733 19.0083C381.089 20.6643 383.66 22.9957 385.446 26.0025C387.233 28.9658 388.126 32.4085 388.126 36.3305C388.126 40.2524 387.451 43.8912 386.1 47.2467C384.749 50.5586 382.81 53.4565 380.282 55.9404C377.798 58.3808 374.813 60.2982 371.327 61.6927C367.884 63.0872 364.05 63.7844 359.823 63.7844ZM360.738 54.7638C363.309 54.7638 365.618 54.3063 367.667 53.3911C369.758 52.4324 371.523 51.1251 372.961 49.4691C374.399 47.8132 375.489 45.9175 376.23 43.7822C377.014 41.6034 377.406 39.3155 377.406 36.9188C377.406 34.6527 376.927 32.6699 375.968 30.9704C375.009 29.2273 373.593 27.8764 371.719 26.9177C369.889 25.959 367.623 25.4796 364.921 25.4796C362.35 25.4796 360.041 25.959 357.992 26.9177C355.944 27.8328 354.179 29.1183 352.698 30.7743C351.26 32.4303 350.148 34.3477 349.364 36.5266C348.623 38.6619 348.253 40.9279 348.253 43.3247C348.253 45.5907 348.732 47.5953 349.691 49.3384C350.693 51.0379 352.109 52.367 353.94 53.3258C355.813 54.2845 358.08 54.7638 360.738 54.7638ZM385.365 63L394.516 17.2434H413.015C418.723 17.2434 423.125 18.5072 426.219 21.0347C429.356 23.5186 430.925 27.0048 430.925 31.4933C430.925 35.3282 430.032 38.6836 428.245 41.5598C426.458 44.3923 423.887 46.5712 420.532 48.0964C417.22 49.6216 413.276 50.3843 408.7 50.3843H393.862L399.484 45.5471L396.019 63H385.365ZM399.222 46.7891L395.496 41.7559H409.158C412.644 41.7559 415.346 40.9715 417.263 39.4027C419.224 37.7903 420.205 35.4589 420.205 32.4085C420.205 30.186 419.464 28.5518 417.982 27.506C416.501 26.4165 414.409 25.8718 411.707 25.8718H398.83L404.452 20.7079L399.222 46.7891ZM451.412 63.7844C446.75 63.7844 442.719 62.9564 439.32 61.3005C435.964 59.6009 433.371 57.2695 431.541 54.3063C429.711 51.2994 428.796 47.835 428.796 43.913C428.796 40.0346 429.471 36.4176 430.822 33.0621C432.216 29.7066 434.156 26.8087 436.64 24.3684C439.167 21.8845 442.152 19.9452 445.595 18.5508C449.081 17.1563 452.959 16.459 457.23 16.459C461.326 16.459 464.943 17.1563 468.081 18.5508C471.218 19.9452 473.593 21.9498 475.206 24.5645L467.558 30.8397C466.381 29.0966 464.878 27.7674 463.048 26.8523C461.217 25.9372 459.038 25.4796 456.511 25.4796C453.94 25.4796 451.608 25.9372 449.517 26.8523C447.425 27.7239 445.617 28.9876 444.091 30.6436C442.61 32.2559 441.477 34.1516 440.692 36.3305C439.908 38.5093 439.516 40.819 439.516 43.2593C439.516 45.5689 440.017 47.5953 441.019 49.3384C442.021 51.0379 443.481 52.367 445.399 53.3258C447.316 54.2845 449.626 54.7638 452.327 54.7638C454.681 54.7638 456.881 54.3498 458.93 53.5219C460.978 52.6503 462.83 51.2994 464.486 49.4691L470.761 55.875C468.364 58.664 465.51 60.6904 462.198 61.9541C458.93 63.1743 455.334 63.7844 451.412 63.7844ZM469.414 63L478.566 17.2434H489.22L480.069 63H469.414ZM508.708 63.7844C504.088 63.7844 500.101 62.9564 496.746 61.3005C493.434 59.6009 490.884 57.2695 489.098 54.3063C487.311 51.2994 486.418 47.835 486.418 43.913C486.418 39.991 487.093 36.374 488.444 33.0621C489.795 29.7066 491.712 26.8087 494.196 24.3684C496.724 21.8845 499.709 19.9452 503.152 18.5508C506.638 17.1563 510.494 16.459 514.721 16.459C519.341 16.459 523.306 17.3088 526.618 19.0083C529.974 20.6643 532.545 22.9957 534.331 26.0025C536.118 28.9658 537.011 32.4085 537.011 36.3305C537.011 40.2524 536.336 43.8912 534.985 47.2467C533.634 50.5586 531.695 53.4565 529.167 55.9404C526.683 58.3808 523.698 60.2982 520.212 61.6927C516.77 63.0872 512.935 63.7844 508.708 63.7844ZM509.623 54.7638C512.194 54.7638 514.503 54.3063 516.552 53.3911C518.643 52.4324 520.408 51.1251 521.846 49.4691C523.284 47.8132 524.374 45.9175 525.115 43.7822C525.899 41.6034 526.291 39.3155 526.291 36.9188C526.291 34.6527 525.812 32.6699 524.853 30.9704C523.894 29.2273 522.478 27.8764 520.604 26.9177C518.774 25.959 516.508 25.4796 513.806 25.4796C511.235 25.4796 508.926 25.959 506.877 26.9177C504.829 27.8328 503.064 29.1183 501.583 30.7743C500.145 32.4303 499.033 34.3477 498.249 36.5266C497.508 38.6619 497.138 40.9279 497.138 43.3247C497.138 45.5907 497.617 47.5953 498.576 49.3384C499.578 51.0379 500.994 52.367 502.825 53.3258C504.699 54.2845 506.965 54.7638 509.623 54.7638ZM510.865 13.5175L520.67 4.10475H531.913L519.101 13.5175H510.865ZM534.25 63L543.401 17.2434H552.16L571.835 50.3843L568.371 50.1882L574.908 17.2434H585.366L576.215 63H567.521L547.781 29.8592L551.31 30.0553L544.708 63H534.25ZM584.295 47.1159L588.283 17.2434H600.441L592.401 47.1159H584.295ZM585.995 63.5229C584.252 63.5229 582.814 63 581.681 61.9541C580.548 60.8647 579.981 59.5574 579.981 58.0321C579.981 56.2019 580.613 54.6984 581.877 53.5219C583.184 52.3453 584.753 51.757 586.583 51.757C588.326 51.757 589.743 52.2799 590.832 53.3258C591.965 54.328 592.532 55.5918 592.532 57.117C592.532 58.2936 592.227 59.3831 591.616 60.3853C591.05 61.344 590.266 62.1067 589.263 62.6732C588.305 63.2397 587.215 63.5229 585.995 63.5229Z" fill="white"/>
</svg>
