<svg width="94" height="93" viewBox="0 0 94 93" fill="none" xmlns="http://www.w3.org/2000/svg">
<g filter="url(#filter0_d_1_369)">
<rect x="6.15747" y="0.792847" width="81.842" height="81.842" rx="25.855" fill="#101C50"/>
</g>
<path d="M25.2398 31.8936C23.4942 31.8936 21.7209 32.6698 19.4485 34.4154V32.3372H15.1532V48.9616H19.7257V38.6265C21.7208 37.0473 22.6347 36.5482 23.3832 36.5482C24.2694 36.5482 24.8517 37.1027 24.8517 38.4878V48.9616H29.4231V38.5988C31.4182 37.0473 32.3055 36.5482 33.0807 36.5482C33.9679 36.5482 34.549 37.1027 34.549 38.4878V48.9616H39.1206V36.8809C39.1206 33.1402 36.9868 31.8936 34.9362 31.8936C33.1906 31.8936 31.4171 32.6143 29.0893 34.3877C28.3428 32.5301 26.7082 31.8936 25.2398 31.8936ZM48.4043 31.8936C43.8606 31.8936 40.092 35.8006 40.092 40.6493C40.092 45.498 43.8606 49.4052 48.4043 49.4052C50.6489 49.4052 52.5887 48.5746 54.0858 46.7725V48.9616H58.4364V32.3372H54.0858V34.5263C52.5887 32.7241 50.6489 31.8936 48.4043 31.8936ZM59.2394 32.3372C61.1235 35.2737 63.2572 37.9063 65.7512 40.539C63.2572 43.2814 61.1235 46.136 59.2394 48.9616H64.7532C66.0551 46.8557 67.5235 44.9438 69.2146 43.1428C70.8769 44.9438 72.2619 46.8557 73.5649 48.9616H79.1341C77.2223 46.0528 75.1441 43.2814 72.6501 40.539C75.1164 37.9063 77.2223 35.1916 79.1341 32.3372H73.6759C72.3185 34.4431 70.8503 36.2162 69.2146 37.9617C67.5522 36.2162 66.0839 34.4431 64.7532 32.3372H59.2394ZM49.0963 35.7453C51.8112 35.7453 54.0005 37.9344 54.0005 40.6493C54.0005 43.3642 51.8112 45.5535 49.0963 45.5535C46.3814 45.5535 44.1922 43.3653 44.1922 40.6493C44.1922 37.9333 46.3814 35.7453 49.0963 35.7453ZM49.0963 36.8532C47.018 36.8532 45.3278 38.5433 45.3278 40.6493C45.3278 42.7554 47.018 44.4456 49.0963 44.4456C51.1746 44.4456 52.8647 42.7554 52.8647 40.6493C52.8647 38.5433 51.1746 36.8532 49.0963 36.8532Z" fill="white"/>
<defs>
<filter id="filter0_d_1_369" x="0.986469" y="0.792847" width="92.184" height="92.1839" filterUnits="userSpaceOnUse" color-interpolation-filters="sRGB">
<feFlood flood-opacity="0" result="BackgroundImageFix"/>
<feColorMatrix in="SourceAlpha" type="matrix" values="0 0 0 0 0 0 0 0 0 0 0 0 0 0 0 0 0 0 127 0" result="hardAlpha"/>
<feOffset dy="5.171"/>
<feGaussianBlur stdDeviation="2.5855"/>
<feComposite in2="hardAlpha" operator="out"/>
<feColorMatrix type="matrix" values="0 0 0 0 0 0 0 0 0 0 0 0 0 0 0 0 0 0 0.25 0"/>
<feBlend mode="normal" in2="BackgroundImageFix" result="effect1_dropShadow_1_369"/>
<feBlend mode="normal" in="SourceGraphic" in2="effect1_dropShadow_1_369" result="shape"/>
</filter>
</defs>
</svg>
