<svg width="51" height="51" viewBox="0 0 51 51" fill="none" xmlns="http://www.w3.org/2000/svg">
<path d="M34.5479 22.7201V25.3052C34.5479 27.7048 33.5946 30.0061 31.8979 31.7029C30.2011 33.3996 27.8998 34.3529 25.5002 34.3529M25.5002 34.3529C23.1006 34.3529 20.7993 33.3996 19.1025 31.7029C17.4057 30.0061 16.4525 27.7048 16.4525 25.3052V22.7201M25.5002 34.3529V39.523M20.3301 39.523H30.6703M25.5002 11.0874C24.4718 11.0874 23.4855 11.4959 22.7583 12.2231C22.0311 12.9503 21.6226 13.9366 21.6226 14.965V25.3052C21.6226 26.3336 22.0311 27.3199 22.7583 28.047C23.4855 28.7742 24.4718 29.1828 25.5002 29.1828C26.5286 29.1828 27.5149 28.7742 28.2421 28.047C28.9692 27.3199 29.3778 26.3336 29.3778 25.3052V14.965C29.3778 13.9366 28.9692 12.9503 28.2421 12.2231C27.5149 11.4959 26.5286 11.0874 25.5002 11.0874Z" stroke="#005A96" stroke-width="2.6365" stroke-linecap="round" stroke-linejoin="round"/>
<path d="M25.5 1.84717C38.4554 1.84717 48.958 12.3497 48.958 25.3052C48.958 38.2606 38.4554 48.7632 25.5 48.7632C12.5446 48.7632 2.04199 38.2606 2.04199 25.3052C2.04199 12.3497 12.5446 1.84717 25.5 1.84717Z" stroke="#005A96" stroke-width="3.08417"/>
</svg>
