<svg width="93" height="93" viewBox="0 0 93 93" fill="none" xmlns="http://www.w3.org/2000/svg">
<g filter="url(#filter0_d_1_355)">
<rect x="5.4696" y="0.792847" width="81.842" height="81.842" rx="25.855" fill="black"/>
</g>
<path fill-rule="evenodd" clip-rule="evenodd" d="M50.9756 14.7426L50.9544 26.8048L50.9331 38.867L49.9407 36.0669C49.9403 36.0659 49.9391 36.0623 49.9387 36.0614L48.6563 62.9151C49.9172 66.4757 50.5927 68.3765 50.6003 68.3841C50.6102 68.394 51.3288 68.4373 52.1971 68.4804C54.8278 68.611 58.0877 68.8907 60.5607 69.198C61.1333 69.2691 61.6261 69.3055 61.6558 69.279C61.6855 69.2524 61.7016 56.9708 61.6917 41.9866L61.6736 14.7426H50.9756ZM31.6257 14.7067V41.9783C31.6257 56.9777 31.6404 69.2647 31.6584 69.2827C31.6763 69.3006 32.6052 69.2129 33.7226 69.0878C34.84 68.9627 36.3842 68.807 37.1543 68.742C38.3353 68.6423 41.8614 68.4156 42.2697 68.4131C42.3885 68.4124 42.3961 67.7996 42.4133 56.862L42.4315 45.3117L43.2847 47.7256C43.4165 48.0987 43.4579 48.2152 43.5863 48.5786L44.8684 21.7315C44.5967 20.9635 44.7391 21.3667 44.4278 20.4865C43.3803 17.5248 42.4914 15.0127 42.4525 14.9041L42.3816 14.7067H31.6257Z" fill="#B1060F" stroke="black" stroke-width="0.0907292"/>
<path fill-rule="evenodd" clip-rule="evenodd" d="M31.6257 14.7067V30.015L42.4097 58.6211C42.4109 57.9655 42.4121 57.6113 42.4133 56.862L42.4315 45.3117L43.2847 47.7256C48.0338 61.1638 50.5853 68.3691 50.6003 68.3841C50.6102 68.394 51.3288 68.4373 52.1971 68.4804C54.8278 68.611 58.0877 68.8907 60.5607 69.198C61.1333 69.2691 61.6261 69.3055 61.6558 69.279C61.6762 69.2607 61.6895 63.2388 61.693 54.7435L50.9595 23.8846L50.9544 26.8048L50.9331 38.867L49.9407 36.0669C48.971 33.3308 48.3235 31.501 44.4278 20.4865C43.3803 17.5248 42.4914 15.0127 42.4525 14.9041L42.3816 14.7067H31.6257Z" fill="url(#paint0_radial_1_355)"/>
<path fill-rule="evenodd" clip-rule="evenodd" d="M31.6257 14.7067L42.4313 45.3256V45.3117L43.2844 47.7256C48.0336 61.1638 50.5851 68.3691 50.6001 68.3841C50.61 68.394 51.3285 68.4373 52.1968 68.4804C54.8275 68.611 58.0875 68.8907 60.5605 69.198C61.1302 69.2687 61.6204 69.3051 61.6547 69.2793L50.9328 38.8614V38.867L49.9404 36.0669C48.9708 33.3308 48.3233 31.501 44.4276 20.4865C43.3801 17.5248 42.4912 15.0127 42.4522 14.9041L42.3813 14.7067L31.6257 14.7067Z" fill="#E50914"/>
<path fill-rule="evenodd" clip-rule="evenodd" d="M50.9756 14.7426L50.9544 26.8048L50.9331 38.867L49.9407 36.0669C49.9403 36.0659 49.9391 36.0623 49.9387 36.0614L48.6563 62.9151C49.9172 66.4757 50.5927 68.3765 50.6003 68.3841C50.6102 68.394 51.3288 68.4373 52.1971 68.4804C54.8278 68.611 58.0877 68.8907 60.5607 69.198C61.1333 69.2691 61.6261 69.3055 61.6558 69.279C61.6855 69.2524 61.7016 56.9708 61.6917 41.9866L61.6736 14.7426H50.9756ZM31.6257 14.7067V41.9783C31.6257 56.9777 31.6404 69.2647 31.6584 69.2827C31.6763 69.3006 32.6052 69.2129 33.7226 69.0878C34.84 68.9627 36.3842 68.807 37.1543 68.742C38.3353 68.6423 41.8614 68.4156 42.2697 68.4131C42.3885 68.4124 42.3961 67.7996 42.4133 56.862L42.4315 45.3117L43.2847 47.7256C43.4165 48.0987 43.4579 48.2152 43.5863 48.5786L44.8684 21.7315C44.5967 20.9635 44.7391 21.3667 44.4278 20.4865C43.3803 17.5248 42.4914 15.0127 42.4525 14.9041L42.3816 14.7067H31.6257Z" fill="#B1060F" stroke="black" stroke-width="0.0907292"/>
<path fill-rule="evenodd" clip-rule="evenodd" d="M31.6257 14.7067V30.015L42.4097 58.6211C42.4109 57.9655 42.4121 57.6113 42.4133 56.862L42.4315 45.3117L43.2847 47.7256C48.0338 61.1638 50.5853 68.3691 50.6003 68.3841C50.6102 68.394 51.3288 68.4373 52.1971 68.4804C54.8278 68.611 58.0877 68.8907 60.5607 69.198C61.1333 69.2691 61.6261 69.3055 61.6558 69.279C61.6762 69.2607 61.6895 63.2388 61.693 54.7435L50.9595 23.8846L50.9544 26.8048L50.9331 38.867L49.9407 36.0669C48.971 33.3308 48.3235 31.501 44.4278 20.4865C43.3803 17.5248 42.4914 15.0127 42.4525 14.9041L42.3816 14.7067H31.6257Z" fill="url(#paint1_radial_1_355)"/>
<path fill-rule="evenodd" clip-rule="evenodd" d="M31.6257 14.7067L42.4313 45.3256V45.3117L43.2844 47.7256C48.0336 61.1638 50.5851 68.3691 50.6001 68.3841C50.61 68.394 51.3285 68.4373 52.1968 68.4804C54.8275 68.611 58.0875 68.8907 60.5605 69.198C61.1302 69.2687 61.6204 69.3051 61.6547 69.2793L50.9328 38.8614V38.867L49.9404 36.0669C48.9708 33.3308 48.3233 31.501 44.4276 20.4865C43.3801 17.5248 42.4912 15.0127 42.4522 14.9041L42.3813 14.7067L31.6257 14.7067Z" fill="#E50914"/>
<defs>
<filter id="filter0_d_1_355" x="0.298603" y="0.792847" width="92.184" height="92.1839" filterUnits="userSpaceOnUse" color-interpolation-filters="sRGB">
<feFlood flood-opacity="0" result="BackgroundImageFix"/>
<feColorMatrix in="SourceAlpha" type="matrix" values="0 0 0 0 0 0 0 0 0 0 0 0 0 0 0 0 0 0 127 0" result="hardAlpha"/>
<feOffset dy="5.171"/>
<feGaussianBlur stdDeviation="2.5855"/>
<feComposite in2="hardAlpha" operator="out"/>
<feColorMatrix type="matrix" values="0 0 0 0 0 0 0 0 0 0 0 0 0 0 0 0 0 0 0.25 0"/>
<feBlend mode="normal" in2="BackgroundImageFix" result="effect1_dropShadow_1_355"/>
<feBlend mode="normal" in="SourceGraphic" in2="effect1_dropShadow_1_355" result="shape"/>
</filter>
<radialGradient id="paint0_radial_1_355" cx="0" cy="0" r="1" gradientTransform="matrix(6.43985 -2.22971 81.6741 235.885 46.1601 41.6798)" gradientUnits="userSpaceOnUse">
<stop/>
<stop offset="1" stop-opacity="0"/>
</radialGradient>
<radialGradient id="paint1_radial_1_355" cx="0" cy="0" r="1" gradientTransform="matrix(6.43985 -2.22971 81.6741 235.885 46.1601 41.6798)" gradientUnits="userSpaceOnUse">
<stop/>
<stop offset="1" stop-opacity="0"/>
</radialGradient>
</defs>
</svg>
