<svg width="450" height="38" viewBox="0 0 450 38" fill="none" xmlns="http://www.w3.org/2000/svg">
<path d="M2.88217 10.9148H5.03771L17.8836 27.2561V10.9148H20.1265V31.3051H18.2914L5.1251 14.5851V31.3051H2.88217V10.9148ZM31.4296 31.6255C30.1674 31.6255 29.0119 31.441 27.9633 31.072C26.9341 30.6836 26.0408 30.1205 25.2834 29.3825C24.5455 28.6252 23.9726 27.6931 23.5648 26.5862C23.157 25.4793 22.9531 24.2073 22.9531 22.7703V10.9148H25.2543V22.6246C25.2543 24.8384 25.798 26.5376 26.8855 27.7222C27.9924 28.9068 29.5265 29.4991 31.4879 29.4991C33.3716 29.4991 34.8668 28.9359 35.9737 27.8096C37.0806 26.6833 37.6341 25.0035 37.6341 22.7703V10.9148H39.9353V22.5955C39.9353 24.0908 39.7314 25.4016 39.3236 26.5279C38.9157 27.6542 38.3332 28.5961 37.5758 29.3534C36.8379 30.1108 35.9446 30.6836 34.896 31.072C33.8667 31.441 32.7113 31.6255 31.4296 31.6255ZM42.7546 10.9148H57.4938V13.0121H45.0558V19.9739H56.183V22.0712H45.0558V29.2078H57.6395V31.3051H42.7546V10.9148ZM57.8994 10.9148H60.4627L67.7158 28.4796L74.998 10.9148H77.474L68.7062 31.4507H66.6672L57.8994 10.9148ZM88.3973 29.5282C89.5625 29.5282 90.6305 29.3146 91.6015 28.8874C92.5919 28.4407 93.4366 27.8387 94.1357 27.0814C94.8348 26.324 95.3785 25.4404 95.7669 24.4306C96.1747 23.4208 96.3786 22.3334 96.3786 21.1682V21.1099C96.3786 19.9448 96.1747 18.8573 95.7669 17.8475C95.3785 16.8183 94.8251 15.925 94.1066 15.1676C93.3881 14.4103 92.5336 13.8083 91.5432 13.3617C90.5723 12.915 89.5042 12.6917 88.3391 12.6917C87.1739 12.6917 86.0961 12.915 85.1058 13.3617C84.1348 13.7889 83.2998 14.3812 82.6007 15.1385C81.9016 15.8959 81.3481 16.7794 80.9403 17.7892C80.5519 18.799 80.3577 19.8865 80.3577 21.0517V21.1099C80.3577 22.2751 80.5519 23.3723 80.9403 24.4015C81.3481 25.4113 81.9113 26.2949 82.6298 27.0522C83.3483 27.8096 84.193 28.4116 85.164 28.8582C86.1544 29.3049 87.2322 29.5282 88.3973 29.5282ZM88.3391 31.6546C86.7855 31.6546 85.3679 31.373 84.0862 30.8099C82.824 30.2467 81.7365 29.4894 80.8238 28.5378C79.9111 27.5668 79.2023 26.4502 78.6974 25.188C78.2119 23.9063 77.9692 22.5664 77.9692 21.1682V21.1099C77.9692 19.7118 78.2216 18.3718 78.7265 17.0902C79.2314 15.8085 79.9402 14.6919 80.8529 13.7403C81.7656 12.7694 82.8628 12.0023 84.1445 11.4391C85.4262 10.8566 86.8438 10.5653 88.3973 10.5653C89.9509 10.5653 91.3588 10.8469 92.621 11.41C93.9027 11.9732 94.9999 12.7402 95.9126 13.7112C96.8253 14.6627 97.5244 15.7794 98.0099 17.061C98.5148 18.3233 98.7672 19.6535 98.7672 21.0517C98.7866 21.0711 98.7866 21.0905 98.7672 21.1099C98.7672 22.5081 98.5148 23.8481 98.0099 25.1297C97.505 26.4114 96.7961 27.5377 95.8834 28.5087C94.9707 29.4602 93.8736 30.2273 92.5919 30.8099C91.3102 31.373 89.8926 31.6546 88.3391 31.6546ZM114.188 29.1786C115.47 29.1786 116.635 28.9747 117.684 28.5669C118.733 28.1591 119.616 27.596 120.335 26.8775C121.073 26.1589 121.636 25.3142 122.024 24.3432C122.432 23.3529 122.636 22.2945 122.636 21.1682V21.1099C122.636 19.9836 122.432 18.935 122.024 17.964C121.636 16.9736 121.073 16.1192 120.335 15.4007C119.616 14.6627 118.733 14.0899 117.684 13.6821C116.635 13.2549 115.47 13.0412 114.188 13.0412H109.411V29.1786H114.188ZM107.11 10.9148H114.188C115.781 10.9148 117.237 11.177 118.558 11.7013C119.898 12.2062 121.043 12.915 121.995 13.8277C122.966 14.7404 123.714 15.8182 124.238 17.061C124.762 18.2844 125.024 19.6147 125.024 21.0517V21.1099C125.024 22.547 124.762 23.8869 124.238 25.1297C123.714 26.3726 122.966 27.4503 121.995 28.363C121.043 29.2757 119.898 29.9943 118.558 30.5186C117.237 31.0429 115.781 31.3051 114.188 31.3051H107.11V10.9148ZM127.274 10.9148H142.013V13.0121H129.575V19.9739H140.702V22.0712H129.575V29.2078H142.159V31.3051H127.274V10.9148ZM153.488 31.6546C152.012 31.6546 150.652 31.3827 149.41 30.839C148.167 30.2953 147.089 29.5573 146.176 28.6252C145.264 27.6737 144.545 26.557 144.021 25.2754C143.516 23.9937 143.263 22.6246 143.263 21.1682V21.1099C143.263 19.6729 143.516 18.3136 144.021 17.0319C144.545 15.7502 145.264 14.6336 146.176 13.6821C147.089 12.7111 148.176 11.9538 149.439 11.41C150.701 10.8469 152.08 10.5653 153.575 10.5653C154.507 10.5653 155.342 10.643 156.08 10.7983C156.837 10.9537 157.537 11.177 158.177 11.4683C158.818 11.7401 159.411 12.08 159.954 12.4878C160.498 12.8762 161.022 13.3131 161.527 13.7986L159.954 15.4881C159.08 14.6725 158.139 14.0025 157.129 13.4782C156.138 12.9539 154.944 12.6917 153.546 12.6917C152.42 12.6917 151.371 12.9053 150.4 13.3325C149.448 13.7598 148.613 14.352 147.895 15.1094C147.196 15.8667 146.642 16.76 146.235 17.7892C145.846 18.799 145.652 19.8865 145.652 21.0517V21.1099C145.652 22.2945 145.846 23.4014 146.235 24.4306C146.642 25.4404 147.196 26.324 147.895 27.0814C148.613 27.8387 149.448 28.4407 150.4 28.8874C151.371 29.3146 152.42 29.5282 153.546 29.5282C154.944 29.5282 156.148 29.2757 157.158 28.7708C158.168 28.2465 159.158 27.5183 160.129 26.5862L161.644 28.0717C161.119 28.6155 160.566 29.1107 159.983 29.5573C159.42 29.9845 158.809 30.3535 158.148 30.6642C157.488 30.9749 156.779 31.2177 156.022 31.3924C155.265 31.5672 154.42 31.6546 153.488 31.6546ZM172.575 29.5282C173.74 29.5282 174.808 29.3146 175.779 28.8874C176.77 28.4407 177.615 27.8387 178.314 27.0814C179.013 26.324 179.556 25.4404 179.945 24.4306C180.353 23.4208 180.557 22.3334 180.557 21.1682V21.1099C180.557 19.9448 180.353 18.8573 179.945 17.8475C179.556 16.8183 179.003 15.925 178.285 15.1676C177.566 14.4103 176.712 13.8083 175.721 13.3617C174.75 12.915 173.682 12.6917 172.517 12.6917C171.352 12.6917 170.274 12.915 169.284 13.3617C168.313 13.7889 167.478 14.3812 166.779 15.1385C166.08 15.8959 165.526 16.7794 165.118 17.7892C164.73 18.799 164.536 19.8865 164.536 21.0517V21.1099C164.536 22.2751 164.73 23.3723 165.118 24.4015C165.526 25.4113 166.089 26.2949 166.808 27.0522C167.526 27.8096 168.371 28.4116 169.342 28.8582C170.332 29.3049 171.41 29.5282 172.575 29.5282ZM172.517 31.6546C170.963 31.6546 169.546 31.373 168.264 30.8099C167.002 30.2467 165.914 29.4894 165.002 28.5378C164.089 27.5668 163.38 26.4502 162.875 25.188C162.39 23.9063 162.147 22.5664 162.147 21.1682V21.1099C162.147 19.7118 162.4 18.3718 162.904 17.0902C163.409 15.8085 164.118 14.6919 165.031 13.7403C165.944 12.7694 167.041 12.0023 168.322 11.4391C169.604 10.8566 171.022 10.5653 172.575 10.5653C174.129 10.5653 175.537 10.8469 176.799 11.41C178.081 11.9732 179.178 12.7402 180.091 13.7112C181.003 14.6627 181.702 15.7794 182.188 17.061C182.693 18.3233 182.945 19.6535 182.945 21.0517C182.965 21.0711 182.965 21.0905 182.945 21.1099C182.945 22.5081 182.693 23.8481 182.188 25.1297C181.683 26.4114 180.974 27.5377 180.061 28.5087C179.149 29.4602 178.051 30.2273 176.77 30.8099C175.488 31.373 174.071 31.6546 172.517 31.6546ZM200.609 31.6546C199.133 31.6546 197.774 31.3827 196.531 30.839C195.288 30.2953 194.211 29.5573 193.298 28.6252C192.385 27.6737 191.667 26.557 191.142 25.2754C190.638 23.9937 190.385 22.6246 190.385 21.1682V21.1099C190.385 19.6729 190.638 18.3136 191.142 17.0319C191.667 15.7502 192.385 14.6336 193.298 13.6821C194.211 12.7111 195.298 11.9538 196.56 11.41C197.823 10.8469 199.201 10.5653 200.697 10.5653C201.629 10.5653 202.464 10.643 203.202 10.7983C203.959 10.9537 204.658 11.177 205.299 11.4683C205.94 11.7401 206.532 12.08 207.076 12.4878C207.62 12.8762 208.144 13.3131 208.649 13.7986L207.076 15.4881C206.202 14.6725 205.26 14.0025 204.25 13.4782C203.26 12.9539 202.066 12.6917 200.668 12.6917C199.541 12.6917 198.493 12.9053 197.522 13.3325C196.57 13.7598 195.735 14.352 195.017 15.1094C194.317 15.8667 193.764 16.76 193.356 17.7892C192.968 18.799 192.774 19.8865 192.774 21.0517V21.1099C192.774 22.2945 192.968 23.4014 193.356 24.4306C193.764 25.4404 194.317 26.324 195.017 27.0814C195.735 27.8387 196.57 28.4407 197.522 28.8874C198.493 29.3146 199.541 29.5282 200.668 29.5282C202.066 29.5282 203.27 29.2757 204.28 28.7708C205.289 28.2465 206.28 27.5183 207.251 26.5862L208.765 28.0717C208.241 28.6155 207.688 29.1107 207.105 29.5573C206.542 29.9845 205.93 30.3535 205.27 30.6642C204.61 30.9749 203.901 31.2177 203.144 31.3924C202.386 31.5672 201.541 31.6546 200.609 31.6546ZM219.697 29.5282C220.862 29.5282 221.93 29.3146 222.901 28.8874C223.891 28.4407 224.736 27.8387 225.435 27.0814C226.134 26.324 226.678 25.4404 227.067 24.4306C227.474 23.4208 227.678 22.3334 227.678 21.1682V21.1099C227.678 19.9448 227.474 18.8573 227.067 17.8475C226.678 16.8183 226.125 15.925 225.406 15.1676C224.688 14.4103 223.833 13.8083 222.843 13.3617C221.872 12.915 220.804 12.6917 219.639 12.6917C218.474 12.6917 217.396 12.915 216.405 13.3617C215.434 13.7889 214.599 14.3812 213.9 15.1385C213.201 15.8959 212.648 16.7794 212.24 17.7892C211.852 18.799 211.657 19.8865 211.657 21.0517V21.1099C211.657 22.2751 211.852 23.3723 212.24 24.4015C212.648 25.4113 213.211 26.2949 213.929 27.0522C214.648 27.8096 215.493 28.4116 216.464 28.8582C217.454 29.3049 218.532 29.5282 219.697 29.5282ZM219.639 31.6546C218.085 31.6546 216.668 31.373 215.386 30.8099C214.124 30.2467 213.036 29.4894 212.123 28.5378C211.211 27.5668 210.502 26.4502 209.997 25.188C209.512 23.9063 209.269 22.5664 209.269 21.1682V21.1099C209.269 19.7118 209.521 18.3718 210.026 17.0902C210.531 15.8085 211.24 14.6919 212.153 13.7403C213.065 12.7694 214.162 12.0023 215.444 11.4391C216.726 10.8566 218.143 10.5653 219.697 10.5653C221.25 10.5653 222.658 10.8469 223.921 11.41C225.202 11.9732 226.299 12.7402 227.212 13.7112C228.125 14.6627 228.824 15.7794 229.309 17.061C229.814 18.3233 230.067 19.6535 230.067 21.0517C230.086 21.0711 230.086 21.0905 230.067 21.1099C230.067 22.5081 229.814 23.8481 229.309 25.1297C228.805 26.4114 228.096 27.5377 227.183 28.5087C226.27 29.4602 225.173 30.2273 223.891 30.8099C222.61 31.373 221.192 31.6546 219.639 31.6546ZM232.298 10.9148H234.454L247.3 27.2561V10.9148H249.543V31.3051H247.708L234.541 14.5851V31.3051H232.298V10.9148Z" fill="#005A96"/>
<mask id="mask0_1_313" style="mask-type:luminance" maskUnits="userSpaceOnUse" x="262" y="0" width="189" height="33">
<path d="M262.412 32.2056H450.002V-3.8147e-06H262.412V32.2056Z" fill="white"/>
</mask>
<g mask="url(#mask0_1_313)">
<path d="M274.556 26.6696C271.039 26.6696 268.194 23.7149 268.194 20.0412C268.194 16.4369 271.039 13.438 274.556 13.438C276.893 13.438 279.23 14.5323 280.225 16.5315C280.294 16.6703 280.385 16.8563 280.385 17.0897V22.9486C280.385 23.0653 280.315 23.3207 280.268 23.3901C279.183 25.3893 276.962 26.6696 274.556 26.6696ZM286.1 31.715V8.46196H280.385V10.4139C278.788 8.85614 276.614 7.9984 273.932 7.9984C267.384 7.9984 262.412 13.3466 262.412 20.0412C262.412 26.7642 267.384 32.1818 273.932 32.1818C276.614 32.1818 278.788 31.2736 280.385 29.7158V31.715H286.1ZM310.921 31.715V19.1362C310.921 12.9492 306.134 7.9984 300.026 7.9984C293.896 7.9984 289.131 12.9492 289.131 19.1362V31.715H294.843V19.1362C294.843 16.09 296.974 13.7628 300.026 13.7628C303.056 13.7628 305.208 16.09 305.208 19.1362V31.715H310.921ZM325.449 26.6696C321.932 26.6696 319.087 23.7149 319.087 20.0412C319.087 16.4369 321.932 13.438 325.449 13.438C327.786 13.438 330.007 14.6016 331.118 16.5315C331.187 16.6703 331.278 16.8563 331.278 17.0897V22.9739C331.278 23.0906 331.209 23.3207 331.165 23.3901C330.076 25.3893 327.855 26.6696 325.449 26.6696ZM336.994 31.715V1.48664H331.278V10.4139C329.684 8.85614 327.507 7.92589 324.825 7.92589C318.277 7.92589 313.305 13.3466 313.305 20.0412C313.305 26.7642 318.277 32.1818 324.825 32.1818C327.507 32.1818 329.684 31.2736 331.278 29.7158V31.715H336.994ZM345.737 31.715V19.297C345.737 15.6233 347.656 13.6713 351.311 13.6713V7.9984C343.955 7.9984 340.024 11.9275 340.024 19.297V31.715H345.737ZM363.803 26.3922C360.334 26.3922 357.513 23.5541 357.513 20.0412C357.513 16.5535 360.334 13.7187 363.803 13.7187C367.32 13.7187 370.121 16.5535 370.121 20.0412C370.121 23.5541 367.32 26.3922 363.803 26.3922ZM363.803 32.1818C370.492 32.1818 375.903 26.7642 375.903 20.0412C375.903 13.3466 370.492 7.9984 363.803 7.9984C357.143 7.9984 351.729 13.3466 351.729 20.0412C351.729 26.7642 357.143 32.1818 363.803 32.1818ZM381.362 6.69607C383.191 6.69607 384.671 5.18245 384.671 3.34718C384.671 1.48668 383.191 -0.00175858 381.362 -0.00175858C379.536 -0.00175858 378.055 1.48668 378.055 3.34718C378.055 5.18245 379.536 6.69607 381.362 6.69607ZM384.207 8.46196H378.491V31.715H384.207V8.46196ZM398.945 26.6696C395.428 26.6696 392.583 23.7149 392.583 20.0412C392.583 16.4369 395.428 13.438 398.945 13.438C401.282 13.438 403.5 14.6016 404.611 16.5315C404.683 16.6703 404.774 16.8563 404.774 17.0897V22.9959C404.774 23.1126 404.705 23.3207 404.658 23.3901C403.572 25.3893 401.351 26.6696 398.945 26.6696ZM410.486 31.715V1.48664H404.774V10.4139C403.177 8.85614 401.003 7.9984 398.321 7.9984C391.774 7.9984 386.798 13.3466 386.798 20.0412C386.798 26.7642 391.774 32.2039 398.321 32.2039C401.003 32.2039 403.177 31.2736 404.774 29.7158V31.715H410.486Z" fill="#005A96"/>
<path d="M440.606 31.7159L449.998 8.43752H445.28L437.597 28.6224H439.194L431.493 8.46278H426.633L436.026 31.7159H440.606ZM425.501 31.9933L425.523 27.8561H425.014C421.661 27.8561 419.299 25.8316 419.299 22.4134V12.3004H425.338V8.46278H419.299V2.15912H415.114V22.4134C415.114 28.4363 419.001 31.9933 425.014 31.9933H425.501Z" fill="#005A96"/>
</g>
</svg>
