<svg width="51" height="51" viewBox="0 0 51 51" fill="none" xmlns="http://www.w3.org/2000/svg">
<path d="M32.9068 30.9274L18.2183 38.8365V38.8375C17.5534 39.1956 16.9345 39.3479 16.3931 39.3365L28.8736 26.9137L32.9068 30.9274Z" fill="#005A96" stroke="#005A96" stroke-width="0.365324"/>
<path d="M27.3744 25.4204L14.5258 38.2085C14.2677 37.7403 14.1176 37.1292 14.1176 36.3872V14.5259C14.1176 13.7601 14.2788 13.1342 14.5531 12.6597L27.3744 25.4204Z" fill="#005A96" stroke="#005A96" stroke-width="0.365324"/>
<path d="M16.4613 11.5714C16.9865 11.5736 17.5827 11.7298 18.2211 12.0724L32.8783 19.9415L28.8744 23.9269L16.4613 11.5714Z" fill="#005A96" stroke="#005A96" stroke-width="0.365324"/>
<path d="M39.0358 23.2476C40.2077 23.8767 40.7442 24.6786 40.7448 25.436C40.7452 26.1462 40.2747 26.896 39.2506 27.5063L39.0387 27.6265L34.8531 29.8794L30.3737 25.4204L34.8278 20.9878L39.0358 23.2476Z" fill="#005A96" stroke="#005A96" stroke-width="0.365324"/>
<path d="M25.5 1.84717C38.4554 1.84717 48.958 12.3497 48.958 25.3052C48.958 38.2606 38.4554 48.7632 25.5 48.7632C12.5446 48.7632 2.04199 38.2606 2.04199 25.3052C2.04199 12.3497 12.5446 1.84717 25.5 1.84717Z" stroke="#005A96" stroke-width="3.08417"/>
</svg>
