<svg width="94" height="93" viewBox="0 0 94 93" fill="none" xmlns="http://www.w3.org/2000/svg">
<g filter="url(#filter0_d_1_373)">
<rect x="6.00085" y="0.792847" width="81.842" height="81.842" rx="25.855" fill="#2896D3"/>
</g>
<path fill-rule="evenodd" clip-rule="evenodd" d="M28.4094 48.0401C28.4843 47.7861 28.5624 47.5452 28.6373 47.2945C29.2201 45.331 29.803 43.3806 30.3858 41.4172L30.4607 41.1892C30.5259 40.9613 30.7408 40.8213 30.9687 40.8213H32.893C33.375 40.8213 33.4759 40.9613 33.3098 41.4172L32.5512 43.4327C31.7013 45.6371 30.8547 47.8545 30.0049 50.0589C29.9788 50.1338 29.943 50.2119 29.917 50.2868C29.829 50.5538 29.562 50.7297 29.282 50.7036C28.7252 50.6906 28.1684 50.6906 27.6084 50.7036C27.2144 50.7166 26.9865 50.5376 26.8497 50.1826C26.5339 49.3458 26.205 48.4992 25.8859 47.6624C25.1272 45.6729 24.3523 43.6834 23.5936 41.6842C23.5187 41.5311 23.4666 41.3553 23.4275 41.1892C23.3884 40.9353 23.4796 40.8083 23.7303 40.8083C24.4532 40.7953 25.1761 40.8083 25.8826 40.8083C26.1854 40.8083 26.3255 41.0102 26.4036 41.2772C26.5436 41.7591 26.6804 42.254 26.8334 42.7326C27.3544 44.4942 27.8591 46.2655 28.3801 48.0271C28.3736 48.0401 28.3866 48.0401 28.4094 48.0401Z" fill="white"/>
<path fill-rule="evenodd" clip-rule="evenodd" d="M37.3949 45.7572V50.3158C37.3688 50.5698 37.2549 50.6837 37.0009 50.6968C36.3171 50.7098 35.6463 50.7098 34.9626 50.6968C34.7086 50.6968 34.5946 50.5698 34.5686 50.3288C34.5555 50.2539 34.5555 50.1628 34.5555 50.0879V41.3224C34.5686 40.9284 34.6695 40.8145 35.0635 40.8145H36.8869C37.2809 40.8145 37.3949 40.9284 37.3949 41.3224V45.7572Z" fill="white"/>
<path fill-rule="evenodd" clip-rule="evenodd" d="M35.9872 36.2728C36.241 36.2467 36.4949 36.2988 36.7357 36.3997C37.2304 36.5884 37.5721 37.0441 37.5949 37.5778C37.6957 38.7299 36.9244 39.3124 35.8993 39.2864C35.7594 39.2864 35.6194 39.2603 35.4827 39.2343C34.6984 39.0455 34.2916 38.437 34.3697 37.5648C34.4316 36.8683 34.9783 36.3509 35.7236 36.2858C35.8082 36.2728 35.8993 36.2597 35.9872 36.2728Z" fill="white"/>
<path fill-rule="evenodd" clip-rule="evenodd" d="M67.1298 40.6552C66.3321 40.4663 65.5213 40.4402 64.7105 40.5672C63.001 40.8212 61.7702 41.7329 61.1776 43.3545C60.5948 44.9011 60.6078 46.5976 61.1906 48.141C61.6986 49.5476 62.7113 50.4333 64.1667 50.8012C64.9384 50.9901 65.7492 51.0422 66.547 50.9282C67.2112 50.8501 67.781 50.6645 68.2597 50.404C68.7383 50.1435 69.1323 49.8081 69.4482 49.4271C69.764 49.0462 70.0017 48.6196 70.171 48.18C71.1804 45.5621 70.412 41.4822 67.1298 40.6552ZM67.4978 47.379C67.4229 47.646 67.3089 47.887 67.1428 48.1149C66.8628 48.5089 66.42 48.7596 65.9381 48.7987C65.6971 48.8248 65.4562 48.8248 65.2152 48.7727C64.6845 48.6717 64.2384 48.3168 64.0235 47.8219C63.8346 47.4279 63.7207 46.9981 63.6816 46.5683C63.6197 45.8194 63.6067 45.0737 63.7825 44.3378C63.8444 44.048 63.9714 43.755 64.1244 43.501C64.4044 43.0451 64.8831 42.7553 65.4171 42.7163C65.658 42.6902 65.899 42.6902 66.1399 42.7423C66.6479 42.8433 67.0647 43.1721 67.2926 43.641C67.5075 44.0838 67.6345 44.5788 67.6606 45.0737C67.7061 45.8487 67.7159 46.6301 67.4978 47.379Z" fill="white"/>
<path fill-rule="evenodd" clip-rule="evenodd" d="M48.3415 36.3602H46.5799C46.098 36.3602 46.0101 36.4481 46.0101 36.9301V41.0328C46.0101 41.1207 46.0492 41.2086 45.9841 41.2998C45.8701 41.2867 45.805 41.2118 45.7171 41.1597C44.3983 40.388 43.0177 40.248 41.6274 40.8927C40.6505 41.3486 40.0449 42.1724 39.6509 43.1492C39.27 44.087 39.182 45.0736 39.2081 46.0765C39.2081 47.0142 39.423 47.939 39.843 48.7758C40.3249 49.7005 41.0217 50.4104 42.0344 50.7132C43.415 51.143 44.7077 50.9281 45.8864 50.0555C45.9743 50.0034 46.0264 49.9154 46.1404 49.8894C46.2022 50.0294 46.2543 50.1792 46.2804 50.3322C46.3325 50.5341 46.5083 50.6741 46.7232 50.6741H47.026C47.4819 50.6741 47.9247 50.6871 48.3675 50.6741C48.7225 50.6741 48.8234 50.5602 48.8364 50.1922V36.8421C48.8234 36.4481 48.7192 36.3602 48.3415 36.3602ZM46.0231 45.6825V47.9878C46.0492 48.1409 45.9613 48.2776 45.8213 48.3427C45.2124 48.6846 44.5156 48.8246 43.8318 48.7237C43.2489 48.6618 42.741 48.3069 42.4772 47.7859C42.2753 47.3789 42.1614 46.9491 42.1223 46.5063C42.0214 45.7085 42.0832 44.8978 42.2753 44.1261C42.3372 43.9112 42.4154 43.7093 42.5293 43.5041C42.7963 43.0092 43.301 42.6934 43.8578 42.6543C44.5286 42.5924 45.1993 42.7162 45.8082 42.9962C45.9613 43.0483 46.0492 43.1981 46.0362 43.3641C46.0101 44.1489 46.0231 44.9108 46.0231 45.6825Z" fill="white"/>
<path fill-rule="evenodd" clip-rule="evenodd" d="M55.9816 46.6811C56.7175 46.629 57.4501 46.4922 58.1078 46.1373C58.7786 45.8084 59.2475 45.1865 59.3875 44.4539C59.4754 43.998 59.4754 43.5161 59.3745 43.0603C59.1075 41.9206 58.3879 41.2108 57.2971 40.8429C56.6882 40.654 56.0434 40.5759 55.4085 40.6019C53.279 40.654 51.6607 41.7285 50.9997 43.858C50.5569 45.2647 50.6188 46.6941 51.0518 48.1008C51.4946 49.5432 52.5073 50.4191 53.953 50.8098C54.5749 50.9629 55.2196 51.0248 55.8546 50.9987C56.7793 50.9857 57.7041 50.8098 58.5767 50.4777C58.9446 50.3377 59.0326 50.2107 59.0326 49.82V48.9083C59.0195 48.5403 58.8665 48.4133 58.5018 48.5045C58.2218 48.5794 57.958 48.6445 57.678 48.7064C56.8282 48.9083 55.9425 48.9473 55.0829 48.7943C54.22 48.6282 53.6372 48.1366 53.4092 47.2737C53.3474 47.0197 53.2953 46.7658 53.2692 46.502C53.3311 46.502 53.3962 46.502 53.4483 46.5281C54.2851 46.6811 55.135 46.7462 55.9816 46.6811ZM53.3344 44.6558C53.4223 44.1609 53.5362 43.6789 53.8423 43.2752C54.3112 42.6533 54.9559 42.4774 55.6918 42.5523C55.7537 42.5523 55.8057 42.5784 55.8676 42.5784C56.7533 42.7184 56.9714 43.4282 56.8054 44.112C56.6784 44.62 56.2616 44.8088 55.7927 44.8967C55.5387 44.9488 55.275 44.9716 55.008 44.9586C54.487 44.9456 53.9823 44.9065 53.4744 44.8316C53.3604 44.8186 53.3116 44.7697 53.3344 44.6558Z" fill="white"/>
<path fill-rule="evenodd" clip-rule="evenodd" d="M31.803 24.7695C31.7509 24.1117 31.5751 23.4638 31.3081 22.8679C30.7871 21.7771 29.9894 20.9793 28.7749 20.7026C27.3812 20.3998 26.1276 20.7026 24.988 21.5524C24.9131 21.6273 24.8219 21.6924 24.721 21.7413C24.6949 21.7282 24.6689 21.7152 24.6689 21.7022C24.6298 21.5752 24.607 21.4482 24.568 21.3212C24.467 21.0054 24.34 20.8914 23.9981 20.8914C23.6172 20.8914 23.2264 20.9045 22.8455 20.8914C22.5557 20.8784 22.2887 20.9175 22.0868 21.1454C22.0868 25.577 22.0868 30.0248 22.0998 34.4466C22.2659 34.7136 22.5166 34.7625 22.8096 34.7495C23.2655 34.7364 23.7214 34.7495 24.1772 34.7495C24.975 34.7495 24.975 34.7495 24.975 33.9647V30.357C24.975 30.269 24.9359 30.1681 25.0238 30.09C25.6588 30.5849 26.4305 30.8877 27.2282 30.9626C28.3418 31.0766 29.3577 30.7965 30.2043 30.0379C30.8262 29.468 31.2821 28.7322 31.523 27.9214C31.8682 26.8859 31.8942 25.8342 31.803 24.7695ZM66.1681 26.632C67.1189 26.811 68.0925 26.8208 69.0433 26.671C69.6001 26.5961 70.1341 26.4301 70.6257 26.1631C71.1955 25.8342 71.6123 25.3784 71.7914 24.7434C72.2342 23.1479 71.5505 21.5394 69.8898 20.9435C69.0791 20.6765 68.2162 20.5886 67.3696 20.7026C65.3671 20.9305 64.0646 22.0343 63.4688 23.9457C63.052 25.2514 63.1008 26.5799 63.4427 27.8986C63.8856 29.582 64.9992 30.5849 66.6858 30.9398C67.6496 31.1547 68.6232 31.1189 69.587 30.9659C70.095 30.8779 70.5997 30.751 71.0816 30.5621C71.3714 30.4481 71.5244 30.2723 71.5114 29.9402C71.4984 29.6374 71.5114 29.3183 71.5114 29.0024C71.5114 28.6214 71.3584 28.5075 70.9937 28.5987C70.6257 28.6866 70.2708 28.7647 69.9029 28.8396C69.1181 29.0057 68.3074 29.0057 67.5226 28.8657C66.4449 28.6508 65.7481 27.726 65.8132 26.5864C65.9271 26.5929 66.0541 26.6059 66.1681 26.632ZM48.7381 30.7868H47.0417C46.5988 30.7868 46.4849 30.6598 46.4849 30.23V21.4385C46.4849 21.3375 46.4979 21.2366 46.5239 21.1356C46.576 20.9826 46.7258 20.8947 46.8789 20.8947H48.4613C48.6893 20.8947 48.8293 21.0347 48.9042 21.2496C48.966 21.4287 49.0051 21.5915 49.0702 21.7803C49.1972 21.7803 49.2721 21.6924 49.36 21.6403C50.0568 21.2105 50.7927 20.8426 51.6165 20.6895C52.2515 20.5626 52.8831 20.5626 53.5181 20.6895C54.114 20.8165 54.6447 21.1715 54.9866 21.6762C55.0126 21.7152 55.0387 21.738 55.0615 21.7641C55.0485 21.7771 55.0615 21.7771 55.0745 21.8031C55.3904 21.6143 55.7192 21.4092 56.0611 21.2333C56.9468 20.7775 57.9366 20.5495 58.9363 20.5984C59.6591 20.6374 60.3169 20.8393 60.8248 21.3701C61.3067 21.865 61.4826 22.4706 61.5346 23.1316C61.5477 23.2716 61.5477 23.4117 61.5477 23.5614V30.1225C61.5477 30.6923 61.4728 30.7672 60.903 30.7672H59.3563C59.2554 30.7672 59.1544 30.7672 59.0535 30.7542C58.9005 30.7412 58.7735 30.6142 58.7507 30.4644C58.7246 30.3244 58.7246 30.1844 58.7246 30.0476V24.1866C58.7376 23.9457 58.7116 23.7177 58.6497 23.4898C58.5488 23.0958 58.1939 22.819 57.7901 22.793C57.0412 22.7409 56.2956 22.8939 55.6118 23.2098C55.5108 23.2358 55.4457 23.3368 55.4587 23.4377V30.0997C55.4587 30.2267 55.4587 30.3407 55.4327 30.4677C55.4327 30.6435 55.2927 30.7705 55.1168 30.7705C54.928 30.7835 54.7359 30.7835 54.534 30.7835H53.1892C52.7203 30.7835 52.6194 30.6695 52.6194 30.2007V24.2094C52.6194 23.9945 52.6064 23.7666 52.5543 23.5517C52.4664 23.1219 52.0984 22.8158 51.6686 22.793C50.9099 22.7409 50.135 22.8939 49.4512 23.2228C49.3503 23.2489 49.2851 23.3628 49.3112 23.4638V30.2137C49.3079 30.6858 49.207 30.7868 48.7381 30.7868ZM35.9188 30.7737H34.2712C34.1833 30.7737 34.0823 30.7737 33.9912 30.7607C33.8251 30.7477 33.6981 30.6077 33.6883 30.4449C33.6753 30.3439 33.6753 30.243 33.6753 30.1421V21.5264C33.6753 20.9435 33.7372 20.8817 34.32 20.8817H35.5346C35.8634 20.8817 36.0165 20.9956 36.1044 21.3115C36.1923 21.6273 36.2704 21.9464 36.3453 22.2883C36.4332 22.2623 36.5114 22.2134 36.5602 22.1353C36.7882 21.9073 37.0291 21.6924 37.2831 21.4906C37.9408 20.9826 38.7646 20.7319 39.5884 20.7937C39.9173 20.8068 40.0312 20.9077 40.0573 21.2236C40.0833 21.6534 40.0703 22.0962 40.0703 22.5293C40.0833 22.7083 40.0703 22.8711 40.0443 23.0502C39.9922 23.2782 39.9043 23.3661 39.6763 23.3921C39.4972 23.4051 39.3344 23.3921 39.1554 23.3791C38.3055 23.3042 37.485 23.467 36.684 23.734C36.5049 23.7991 36.5049 23.9229 36.5049 24.0629V30.1421C36.5049 30.256 36.5049 30.357 36.4919 30.4709C36.4788 30.637 36.3518 30.7607 36.189 30.7607C36.1109 30.7737 36.0099 30.7737 35.9188 30.7737ZM43.5707 30.7477H41.8091C41.7472 30.7477 41.6951 30.7477 41.63 30.7347C41.4509 30.7216 41.3011 30.5816 41.2881 30.4058C41.2751 30.3049 41.2751 30.2039 41.2751 30.103C41.2881 28.6963 41.2881 27.2539 41.2881 25.8082V21.3115C41.3011 21.0086 41.4151 20.8947 41.7179 20.8817C42.3757 20.8686 43.0366 20.8686 43.6944 20.8817C43.9842 20.8817 44.0753 20.9696 44.1014 21.2626C44.1144 21.3766 44.1144 21.4775 44.1144 21.5915V30.0281C44.1144 30.1681 44.1014 30.3081 44.0884 30.4449C44.0753 30.6109 43.9484 30.7216 43.7856 30.7347C43.7107 30.7477 43.6455 30.7477 43.5707 30.7477ZM28.7749 27.3906C28.6869 27.7846 28.4851 28.1363 28.192 28.4033C27.8631 28.6833 27.4561 28.8461 27.0263 28.8461C26.3816 28.8852 25.7467 28.7452 25.1768 28.4424C25.0368 28.3805 24.9489 28.2405 24.9619 28.0874V25.7951C24.9619 25.0365 24.975 24.2745 24.9619 23.5159C24.9489 23.3368 25.0499 23.187 25.2159 23.1219C25.9127 22.793 26.6356 22.64 27.3943 22.793C27.925 22.8679 28.3809 23.2098 28.599 23.7047C28.7879 24.1085 28.9018 24.5546 28.9279 24.9974C29.0028 25.8082 29.0028 26.6189 28.7749 27.3906ZM65.8523 24.6946C65.8913 24.3918 65.9792 24.0987 66.0932 23.8219C66.4742 22.8972 67.2719 22.5814 68.0827 22.6302C68.3106 22.6432 68.5386 22.6921 68.7535 22.7832C69.0823 22.9232 69.2972 23.2261 69.3363 23.581C69.3754 23.7959 69.3624 24.0238 69.2972 24.2387C69.1442 24.6946 68.7763 24.8834 68.3334 24.9746C68.0664 25.0397 67.7896 25.0625 67.5096 25.0397C67.0147 25.0397 66.51 25.0006 66.0151 24.9258C65.8262 24.8965 65.8262 24.8965 65.8523 24.6946ZM42.7599 16.3459C42.9618 16.3329 43.1636 16.3719 43.3557 16.4338C44.0395 16.6617 44.3944 17.2576 44.3326 18.0293C44.2837 18.687 43.7888 19.221 43.1311 19.322C42.851 19.3741 42.5613 19.3741 42.2812 19.322C41.5584 19.182 41.0276 18.6512 41.0765 17.7395C41.1514 16.8408 41.7472 16.3459 42.7599 16.3459Z" fill="white"/>
<path fill-rule="evenodd" clip-rule="evenodd" d="M68.241 60.505C62.4841 64.751 54.142 67.0107 46.9557 67.0107C36.8846 67.0107 27.8163 63.289 20.9556 57.0926C20.4184 56.6074 20.897 55.9399 21.545 56.3176C28.9494 60.6255 38.1056 63.2206 47.5614 63.2206C53.9401 63.2206 60.9538 61.8954 67.4041 59.1602C68.3777 58.7467 69.195 59.8017 68.241 60.505Z" fill="white"/>
<path fill-rule="evenodd" clip-rule="evenodd" d="M70.6396 57.7693C69.9037 56.825 65.7717 57.3232 63.9189 57.5446C63.3556 57.613 63.271 57.1213 63.7757 56.7664C67.0709 54.4513 72.4695 55.122 73.0947 55.8937C73.7264 56.6752 72.9286 62.0869 69.8418 64.6722C69.3664 65.0695 68.9138 64.8578 69.1255 64.3336C69.819 62.5981 71.3754 58.7135 70.6396 57.7693Z" fill="white"/>
<defs>
<filter id="filter0_d_1_373" x="0.829853" y="0.792847" width="92.1839" height="92.1839" filterUnits="userSpaceOnUse" color-interpolation-filters="sRGB">
<feFlood flood-opacity="0" result="BackgroundImageFix"/>
<feColorMatrix in="SourceAlpha" type="matrix" values="0 0 0 0 0 0 0 0 0 0 0 0 0 0 0 0 0 0 127 0" result="hardAlpha"/>
<feOffset dy="5.171"/>
<feGaussianBlur stdDeviation="2.5855"/>
<feComposite in2="hardAlpha" operator="out"/>
<feColorMatrix type="matrix" values="0 0 0 0 0 0 0 0 0 0 0 0 0 0 0 0 0 0 0.25 0"/>
<feBlend mode="normal" in2="BackgroundImageFix" result="effect1_dropShadow_1_373"/>
<feBlend mode="normal" in="SourceGraphic" in2="effect1_dropShadow_1_373" result="shape"/>
</filter>
</defs>
</svg>
