<svg width="93" height="93" viewBox="0 0 93 93" fill="none" xmlns="http://www.w3.org/2000/svg">
<g filter="url(#filter0_d_1_387)">
<rect x="5.8446" y="0.792847" width="81.842" height="81.842" rx="25.855" fill="black"/>
</g>
<path d="M46.7176 9.79541C29.5782 9.79541 15.6688 23.7048 15.6688 40.8442C15.6688 57.9836 29.5782 71.893 46.7176 71.893C63.857 71.893 77.7664 57.9836 77.7664 40.8442C77.7664 23.7048 63.857 9.79541 46.7176 9.79541Z" fill="#1ED760"/>
<path d="M66.5658 37.7269C65.9148 37.7269 65.5141 37.5642 64.9507 37.2386C56.0367 31.9178 40.0992 30.6408 29.783 33.5203C29.3323 33.6455 28.7689 33.8458 28.1679 33.8458C26.5153 33.8458 25.2509 32.5563 25.2509 30.8912C25.2509 29.1885 26.3025 28.2245 27.4293 27.899C31.8362 26.6094 36.769 25.996 42.1399 25.996C51.2793 25.996 60.8568 27.899 67.8553 31.9804C68.8318 32.5438 69.4703 33.32 69.4703 34.8098C69.4703 36.5125 68.0932 37.7269 66.5658 37.7269ZM62.6847 47.2669C62.0337 47.2669 61.5955 46.9789 61.1448 46.7411C53.32 42.1088 41.6516 40.2434 31.2728 43.0603C30.6719 43.223 30.3464 43.3858 29.783 43.3858C28.4434 43.3858 27.3542 42.2966 27.3542 40.957C27.3542 39.6174 28.0052 38.7285 29.2947 38.3654C32.7752 37.3889 36.3308 36.6627 41.539 36.6627C49.6642 36.6627 57.5141 38.6784 63.6988 42.3592C64.7129 42.9601 65.1135 43.7363 65.1135 44.8256C65.101 46.1777 64.0493 47.2669 62.6847 47.2669ZM59.3169 55.4798C58.7911 55.4798 58.4656 55.317 57.9773 55.0291C50.165 50.3217 41.0757 50.1214 32.0991 51.9618C31.6109 52.087 30.9723 52.2873 30.6093 52.2873C29.3949 52.2873 28.6312 51.3233 28.6312 50.3092C28.6312 49.0197 29.3949 48.4062 30.3338 48.2059C40.5875 45.9398 51.0664 46.1401 60.0055 51.486C60.7692 51.9743 61.2199 52.4125 61.2199 53.5518C61.2199 54.6911 60.331 55.4798 59.3169 55.4798Z" fill="black"/>
<defs>
<filter id="filter0_d_1_387" x="0.673603" y="0.792847" width="92.1839" height="92.1839" filterUnits="userSpaceOnUse" color-interpolation-filters="sRGB">
<feFlood flood-opacity="0" result="BackgroundImageFix"/>
<feColorMatrix in="SourceAlpha" type="matrix" values="0 0 0 0 0 0 0 0 0 0 0 0 0 0 0 0 0 0 127 0" result="hardAlpha"/>
<feOffset dy="5.171"/>
<feGaussianBlur stdDeviation="2.5855"/>
<feComposite in2="hardAlpha" operator="out"/>
<feColorMatrix type="matrix" values="0 0 0 0 0 0 0 0 0 0 0 0 0 0 0 0 0 0 0.25 0"/>
<feBlend mode="normal" in2="BackgroundImageFix" result="effect1_dropShadow_1_387"/>
<feBlend mode="normal" in="SourceGraphic" in2="effect1_dropShadow_1_387" result="shape"/>
</filter>
</defs>
</svg>
