<svg width="51" height="51" viewBox="0 0 51 51" fill="none" xmlns="http://www.w3.org/2000/svg">
<path d="M13.0103 30.4259C14.2104 30.6707 15.312 31.2629 16.1781 32.129C17.0441 32.9951 17.6364 34.0967 17.8811 35.2968M13.0103 25.3677C15.5466 25.6498 17.9114 26.7866 19.716 28.5911C21.5205 30.3956 22.6573 32.7605 22.9394 35.2968M13.0103 20.3095V17.8116C13.0103 17.1491 13.2734 16.5138 13.7419 16.0453C14.2103 15.5769 14.8457 15.3137 15.5081 15.3137H35.4912C36.1537 15.3137 36.7891 15.5769 37.2575 16.0453C37.7259 16.5138 37.9891 17.1491 37.9891 17.8116V32.7989C37.9891 33.4614 37.7259 34.0967 37.2575 34.5652C36.7891 35.0336 36.1537 35.2968 35.4912 35.2968H27.9976M13.0103 35.2968H13.0227" stroke="#005A96" stroke-width="2.5476" stroke-linecap="round" stroke-linejoin="round"/>
<path d="M25.5 1.84717C38.4554 1.84717 48.958 12.3497 48.958 25.3052C48.958 38.2606 38.4554 48.7632 25.5 48.7632C12.5446 48.7632 2.04199 38.2606 2.04199 25.3052C2.04199 12.3497 12.5446 1.84717 25.5 1.84717Z" stroke="#005A96" stroke-width="3.08417"/>
</svg>
