<svg width="451" height="105" viewBox="0 0 451 105" fill="none" xmlns="http://www.w3.org/2000/svg">
<path d="M3.3318 98.2454L3.98435 85.6201H5.20432L5.88523 98.2454V99.8625H3.3318V98.2454ZM3.30343 80.0025H5.9136V82.9815H3.30343V80.0025ZM18.0703 100.203C16.6328 100.203 15.3088 99.9382 14.0983 99.4086C12.8878 98.879 11.8381 98.1603 10.9491 97.2524C10.0601 96.3256 9.36029 95.238 8.84961 93.9897C8.35783 92.7413 8.11195 91.4079 8.11195 89.9893V89.9325C8.11195 88.5329 8.35783 87.2089 8.84961 85.9605C9.36029 84.7122 10.0601 83.6246 10.9491 82.6978C11.8381 81.7521 12.8973 81.0144 14.1267 80.4848C15.3561 79.9363 16.699 79.6621 18.1554 79.6621C19.0633 79.6621 19.8766 79.7377 20.5954 79.889C21.333 80.0404 22.014 80.2579 22.6381 80.5416C23.2623 80.8064 23.8392 81.1374 24.3688 81.5346C24.8984 81.9129 25.4091 82.3384 25.9009 82.8113L24.3688 84.4568C23.5176 83.6624 22.6003 83.0099 21.6168 82.4992C20.6521 81.9885 19.4889 81.7332 18.1271 81.7332C17.03 81.7332 16.0087 81.9412 15.063 82.3574C14.1362 82.7735 13.3228 83.3504 12.623 84.088C11.9421 84.8257 11.403 85.6957 11.0058 86.6982C10.6276 87.6817 10.4384 88.7409 10.4384 89.8758V89.9325C10.4384 91.0863 10.6276 92.1644 11.0058 93.1669C11.403 94.1504 11.9421 95.011 12.623 95.7487C13.3228 96.4863 14.1362 97.0727 15.063 97.5077C16.0087 97.9238 17.03 98.1319 18.1271 98.1319C19.4889 98.1319 20.6616 97.886 21.6451 97.3942C22.6287 96.8835 23.5933 96.1743 24.539 95.2664L26.0143 96.7133C25.5037 97.2429 24.9646 97.7252 24.3972 98.1603C23.8486 98.5764 23.2528 98.9357 22.6098 99.2384C21.9667 99.541 21.2763 99.7774 20.5386 99.9477C19.801 100.118 18.9782 100.203 18.0703 100.203ZM34.0514 98.2454C34.8458 98.2454 35.574 98.0941 36.236 97.7914C36.898 97.4888 37.4655 97.0821 37.9383 96.5715C38.4112 96.0608 38.78 95.465 39.0448 94.7841C39.3096 94.1031 39.442 93.3749 39.442 92.5995V92.5427C39.442 91.7483 39.3002 91.0107 39.0164 90.3297C38.7516 89.6299 38.3734 89.0247 37.8816 88.514C37.3898 87.9844 36.8129 87.5683 36.1509 87.2656C35.4889 86.963 34.7702 86.8117 33.9947 86.8117C33.2003 86.8117 32.4721 86.963 31.8101 87.2656C31.1481 87.5683 30.5807 87.9749 30.1078 88.4856C29.6539 88.9963 29.2945 89.6015 29.0297 90.3014C28.7649 90.9823 28.6325 91.7105 28.6325 92.486V92.5427C28.6325 93.3371 28.7649 94.0842 29.0297 94.7841C29.3134 95.465 29.6917 96.0608 30.1645 96.5715C30.6563 97.0821 31.2332 97.4888 31.8952 97.7914C32.5572 98.0941 33.2759 98.2454 34.0514 98.2454ZM33.9947 100.203C32.8977 100.203 31.8857 100.004 30.9589 99.6072C30.0321 99.1911 29.2283 98.6426 28.5474 97.9617C27.8665 97.2618 27.3369 96.458 26.9586 95.5501C26.5803 94.6233 26.3911 93.6397 26.3911 92.5995V92.5427C26.3911 91.5024 26.5803 90.5189 26.9586 89.5921C27.3369 88.6653 27.8665 87.852 28.5474 87.1521C29.2283 86.4523 30.0321 85.9038 30.9589 85.5066C31.9047 85.0905 32.9355 84.8824 34.0514 84.8824C35.1485 84.8824 36.1604 85.0905 37.0872 85.5066C38.0329 85.9038 38.8462 86.4523 39.5271 87.1521C40.208 87.8331 40.7376 88.6369 41.1159 89.5637C41.4942 90.4716 41.6834 91.4457 41.6834 92.486V92.5427C41.6834 93.583 41.4848 94.5665 41.0876 95.4933C40.7093 96.4201 40.1797 97.2335 39.4988 97.9333C38.8178 98.6331 38.0045 99.1911 37.0588 99.6072C36.1131 100.004 35.0917 100.203 33.9947 100.203ZM43.371 85.1945H45.5556V87.7479C46.0474 86.9535 46.6905 86.2821 47.4849 85.7336C48.2793 85.1661 49.3101 84.8824 50.5774 84.8824C51.4663 84.8824 52.2513 85.0243 52.9322 85.308C53.632 85.5917 54.2184 85.9984 54.6912 86.528C55.183 87.0387 55.5518 87.6534 55.7977 88.3721C56.0625 89.0909 56.1949 89.8853 56.1949 90.7553V99.8625H54.0103V91.2944C54.0103 89.9325 53.6604 88.8544 52.9606 88.06C52.2607 87.2656 51.2583 86.8684 49.9532 86.8684C49.329 86.8684 48.7427 86.9819 48.1942 87.2089C47.6646 87.4169 47.2012 87.729 46.804 88.1451C46.4068 88.5423 46.0947 89.0247 45.8677 89.5921C45.6596 90.1595 45.5556 90.7837 45.5556 91.4646V99.8625H43.371V85.1945ZM57.1372 85.1945H59.5487L64.4854 97.3659L69.4504 85.1945H71.8052L65.4216 99.976H63.4924L57.1372 85.1945ZM83.7188 91.6632C83.662 91.0012 83.5202 90.377 83.2932 89.7907C83.0662 89.1854 82.7541 88.6558 82.3569 88.2019C81.9786 87.7479 81.5058 87.3886 80.9384 87.1238C80.3898 86.859 79.7562 86.7266 79.0375 86.7266C78.4133 86.7266 77.827 86.8495 77.2784 87.0954C76.7299 87.3413 76.2476 87.6912 75.8315 88.1451C75.4154 88.5802 75.0655 89.1003 74.7818 89.7056C74.517 90.3108 74.3467 90.9634 74.2711 91.6632H83.7188ZM74.2711 93.4222C74.3467 94.1977 74.5359 94.8881 74.8385 95.4933C75.1411 96.0986 75.5289 96.6093 76.0017 97.0254C76.4746 97.4415 77.0042 97.7631 77.5905 97.99C78.1769 98.1981 78.7916 98.3021 79.4347 98.3021C80.456 98.3021 81.3261 98.113 82.0448 97.7347C82.7825 97.3564 83.454 96.8552 84.0592 96.231L85.4211 97.451C84.6834 98.2832 83.8417 98.9547 82.896 99.4653C81.9503 99.9571 80.7776 100.203 79.3779 100.203C78.3755 100.203 77.4298 100.023 76.5408 99.6639C75.6518 99.2857 74.8763 98.7655 74.2143 98.1035C73.5523 97.4226 73.0227 96.6093 72.6255 95.6636C72.2472 94.7179 72.0581 93.6776 72.0581 92.5427C72.0581 91.4835 72.2283 90.4905 72.5688 89.5637C72.9282 88.618 73.4199 87.8047 74.0441 87.1238C74.6683 86.4239 75.4059 85.8754 76.2571 85.4782C77.1271 85.081 78.0728 84.8824 79.0942 84.8824C80.1723 84.8824 81.137 85.0905 81.9881 85.5066C82.8393 85.9038 83.558 86.4523 84.1443 87.1521C84.7307 87.852 85.1752 88.6747 85.4778 89.6205C85.7804 90.5662 85.9317 91.5781 85.9317 92.6562C85.9317 92.7508 85.9317 92.8643 85.9317 92.9967C85.9317 93.1101 85.9223 93.252 85.9034 93.4222H74.2711ZM87.4864 85.1945H89.671V89.0247C89.9358 88.4194 90.2668 87.8614 90.664 87.3507C91.0612 86.8401 91.5152 86.405 92.0258 86.0457C92.5365 85.6674 93.0945 85.3837 93.6998 85.1945C94.305 85.0054 94.9576 84.9203 95.6574 84.9392V87.294H95.4872C94.6928 87.294 93.9362 87.4359 93.2174 87.7196C92.5176 88.0033 91.9029 88.4289 91.3733 88.9963C90.8437 89.5637 90.4276 90.273 90.125 91.1241C89.8223 91.9564 89.671 92.921 89.671 94.018V99.8625H87.4864V85.1945ZM101.623 100.118C101.037 100.118 100.488 100.042 99.9776 99.8909C99.4669 99.7396 99.0224 99.5032 98.6441 99.1816C98.2848 98.8412 98.0011 98.4061 97.793 97.8765C97.5849 97.3469 97.4809 96.7133 97.4809 95.9757V87.1238H95.4382V85.1945H97.4809V80.7686H99.6655V85.1945H104.318V87.1238H99.6655V95.6919C99.6655 96.5998 99.8925 97.2335 100.346 97.5928C100.8 97.9522 101.396 98.1319 102.134 98.1319C102.512 98.1319 102.862 98.0941 103.184 98.0184C103.524 97.9427 103.883 97.8103 104.262 97.6212V99.4937C103.883 99.7018 103.477 99.8531 103.042 99.9477C102.626 100.061 102.153 100.118 101.623 100.118ZM109.008 78.8677L111.278 79.9174L108.072 82.9815H106.313L109.008 78.8677ZM106.114 85.1945H108.299V99.8625H106.114V85.1945ZM122.243 100.118C121.657 100.118 121.109 100.042 120.598 99.8909C120.087 99.7396 119.643 99.5032 119.264 99.1816C118.905 98.8412 118.621 98.4061 118.413 97.8765C118.205 97.3469 118.101 96.7133 118.101 95.9757V87.1238H116.058V85.1945H118.101V80.7686H120.286V85.1945H124.939V87.1238H120.286V95.6919C120.286 96.5998 120.513 97.2335 120.967 97.5928C121.421 97.9522 122.016 98.1319 122.754 98.1319C123.132 98.1319 123.482 98.0941 123.804 98.0184C124.144 97.9427 124.504 97.8103 124.882 97.6212V99.4937C124.504 99.7018 124.097 99.8531 123.662 99.9477C123.246 100.061 122.773 100.118 122.243 100.118ZM131.927 100.175C131.038 100.175 130.243 100.033 129.543 99.7491C128.862 99.4653 128.276 99.0681 127.784 98.5575C127.311 98.0279 126.943 97.4037 126.678 96.6849C126.432 95.9662 126.309 95.1718 126.309 94.3017V85.1945H128.494V93.7627C128.494 95.1245 128.843 96.2026 129.543 96.997C130.243 97.7914 131.246 98.1886 132.551 98.1886C133.175 98.1886 133.752 98.0846 134.281 97.8765C134.83 97.6496 135.293 97.3375 135.672 96.9403C136.069 96.5242 136.381 96.0324 136.608 95.465C136.835 94.8975 136.948 94.2734 136.948 93.5925V85.1945H139.104V99.8625H136.948V97.3091C136.456 98.1035 135.813 98.7844 135.019 99.3519C134.225 99.9004 133.194 100.175 131.927 100.175ZM152.893 100.118C152.307 100.118 151.759 100.042 151.248 99.8909C150.737 99.7396 150.293 99.5032 149.914 99.1816C149.555 98.8412 149.271 98.4061 149.063 97.8765C148.855 97.3469 148.751 96.7133 148.751 95.9757V87.1238H146.708V85.1945H148.751V80.7686H150.936V85.1945H155.589V87.1238H150.936V95.6919C150.936 96.5998 151.163 97.2335 151.617 97.5928C152.071 97.9522 152.666 98.1319 153.404 98.1319C153.782 98.1319 154.132 98.0941 154.454 98.0184C154.794 97.9427 155.154 97.8103 155.532 97.6212V99.4937C155.154 99.7018 154.747 99.8531 154.312 99.9477C153.896 100.061 153.423 100.118 152.893 100.118ZM167.939 91.6632C167.882 91.0012 167.74 90.377 167.513 89.7907C167.286 89.1854 166.974 88.6558 166.577 88.2019C166.199 87.7479 165.726 87.3886 165.158 87.1238C164.61 86.859 163.976 86.7266 163.257 86.7266C162.633 86.7266 162.047 86.8495 161.498 87.0954C160.95 87.3413 160.468 87.6912 160.051 88.1451C159.635 88.5802 159.285 89.1003 159.002 89.7056C158.737 90.3108 158.567 90.9634 158.491 91.6632H167.939ZM158.491 93.4222C158.567 94.1977 158.756 94.8881 159.058 95.4933C159.361 96.0986 159.749 96.6093 160.222 97.0254C160.695 97.4415 161.224 97.7631 161.811 97.99C162.397 98.1981 163.012 98.3021 163.655 98.3021C164.676 98.3021 165.546 98.113 166.265 97.7347C167.003 97.3564 167.674 96.8552 168.279 96.231L169.641 97.451C168.903 98.2832 168.062 98.9547 167.116 99.4653C166.17 99.9571 164.998 100.203 163.598 100.203C162.595 100.203 161.65 100.023 160.761 99.6639C159.872 99.2857 159.096 98.7655 158.434 98.1035C157.772 97.4226 157.243 96.6093 156.846 95.6636C156.467 94.7179 156.278 93.6776 156.278 92.5427C156.278 91.4835 156.448 90.4905 156.789 89.5637C157.148 88.618 157.64 87.8047 158.264 87.1238C158.888 86.4239 159.626 85.8754 160.477 85.4782C161.347 85.081 162.293 84.8824 163.314 84.8824C164.392 84.8824 165.357 85.0905 166.208 85.5066C167.059 85.9038 167.778 86.4523 168.364 87.1521C168.951 87.852 169.395 88.6747 169.698 89.6205C170 90.5662 170.152 91.5781 170.152 92.6562C170.152 92.7508 170.152 92.8643 170.152 92.9967C170.152 93.1101 170.142 93.252 170.123 93.4222H158.491ZM171.905 79.1514H174.09V99.8625H171.905V79.1514ZM187.643 91.6632C187.586 91.0012 187.444 90.377 187.217 89.7907C186.99 89.1854 186.678 88.6558 186.281 88.2019C185.902 87.7479 185.43 87.3886 184.862 87.1238C184.314 86.859 183.68 86.7266 182.961 86.7266C182.337 86.7266 181.751 86.8495 181.202 87.0954C180.654 87.3413 180.171 87.6912 179.755 88.1451C179.339 88.5802 178.989 89.1003 178.706 89.7056C178.441 90.3108 178.27 90.9634 178.195 91.6632H187.643ZM178.195 93.4222C178.27 94.1977 178.46 94.8881 178.762 95.4933C179.065 96.0986 179.453 96.6093 179.925 97.0254C180.398 97.4415 180.928 97.7631 181.514 97.99C182.101 98.1981 182.715 98.3021 183.358 98.3021C184.38 98.3021 185.25 98.113 185.969 97.7347C186.706 97.3564 187.378 96.8552 187.983 96.231L189.345 97.451C188.607 98.2832 187.765 98.9547 186.82 99.4653C185.874 99.9571 184.701 100.203 183.302 100.203C182.299 100.203 181.354 100.023 180.465 99.6639C179.576 99.2857 178.8 98.7655 178.138 98.1035C177.476 97.4226 176.946 96.6093 176.549 95.6636C176.171 94.7179 175.982 93.6776 175.982 92.5427C175.982 91.4835 176.152 90.4905 176.493 89.5637C176.852 88.618 177.344 87.8047 177.968 87.1238C178.592 86.4239 179.33 85.8754 180.181 85.4782C181.051 85.081 181.997 84.8824 183.018 84.8824C184.096 84.8824 185.061 85.0905 185.912 85.5066C186.763 85.9038 187.482 86.4523 188.068 87.1521C188.654 87.852 189.099 88.6747 189.402 89.6205C189.704 90.5662 189.855 91.5781 189.855 92.6562C189.855 92.7508 189.855 92.8643 189.855 92.9967C189.855 93.1101 189.846 93.252 189.827 93.4222H178.195ZM189.963 85.1945H192.375L197.311 97.3659L202.276 85.1945H204.631L198.248 99.976H196.318L189.963 85.1945ZM205.991 85.1945H208.175V99.8625H205.991V85.1945ZM205.849 79.577H208.345V81.9885H205.849V79.577ZM215.827 100.146C214.768 100.146 213.699 99.9571 212.621 99.5788C211.543 99.1816 210.588 98.652 209.755 97.99L210.862 96.4296C211.656 97.0349 212.479 97.4983 213.33 97.8198C214.2 98.1413 215.07 98.3021 215.94 98.3021C216.829 98.3021 217.558 98.0941 218.125 97.6779C218.692 97.2618 218.976 96.6944 218.976 95.9757V95.9189C218.976 95.5595 218.872 95.2475 218.664 94.9827C218.475 94.7179 218.21 94.4909 217.87 94.3017C217.529 94.0937 217.132 93.914 216.678 93.7627C216.243 93.6114 215.789 93.4695 215.316 93.3371C214.749 93.1669 214.172 92.9872 213.586 92.7981C213.018 92.59 212.498 92.3347 212.025 92.032C211.571 91.7294 211.193 91.3511 210.89 90.8972C210.607 90.4432 210.465 89.8758 210.465 89.1949V89.1381C210.465 88.514 210.588 87.9465 210.834 87.4359C211.079 86.9063 211.42 86.4618 211.855 86.1024C212.309 85.7241 212.838 85.4404 213.444 85.2512C214.068 85.0432 214.739 84.9392 215.458 84.9392C216.366 84.9392 217.283 85.0905 218.21 85.3931C219.137 85.6768 219.979 86.0646 220.735 86.5563L219.742 88.2019C219.061 87.7669 218.342 87.4264 217.586 87.1805C216.848 86.9157 216.12 86.7833 215.401 86.7833C214.531 86.7833 213.841 86.9914 213.33 87.4075C212.82 87.8047 212.564 88.3059 212.564 88.9112V88.9679C212.564 89.3084 212.668 89.611 212.876 89.8758C213.084 90.1217 213.359 90.3392 213.699 90.5283C214.058 90.7175 214.465 90.8877 214.919 91.039C215.373 91.1903 215.846 91.3417 216.338 91.493C216.905 91.6632 217.463 91.8523 218.011 92.0604C218.579 92.2685 219.09 92.5333 219.544 92.8548C219.997 93.1763 220.357 93.5641 220.622 94.018C220.905 94.472 221.047 95.0299 221.047 95.6919V95.7487C221.047 96.4485 220.905 97.0727 220.622 97.6212C220.357 98.1508 219.988 98.6047 219.515 98.983C219.061 99.3613 218.513 99.6545 217.87 99.8625C217.245 100.052 216.565 100.146 215.827 100.146ZM229.588 98.2454C230.383 98.2454 231.111 98.0941 231.773 97.7914C232.435 97.4888 233.002 97.0821 233.475 96.5715C233.948 96.0608 234.317 95.465 234.582 94.7841C234.847 94.1031 234.979 93.3749 234.979 92.5995V92.5427C234.979 91.7483 234.837 91.0107 234.553 90.3297C234.289 89.6299 233.91 89.0247 233.419 88.514C232.927 87.9844 232.35 87.5683 231.688 87.2656C231.026 86.963 230.307 86.8117 229.532 86.8117C228.737 86.8117 228.009 86.963 227.347 87.2656C226.685 87.5683 226.118 87.9749 225.645 88.4856C225.191 88.9963 224.831 89.6015 224.567 90.3014C224.302 90.9823 224.169 91.7105 224.169 92.486V92.5427C224.169 93.3371 224.302 94.0842 224.567 94.7841C224.85 95.465 225.229 96.0608 225.701 96.5715C226.193 97.0821 226.77 97.4888 227.432 97.7914C228.094 98.0941 228.813 98.2454 229.588 98.2454ZM229.532 100.203C228.435 100.203 227.423 100.004 226.496 99.6072C225.569 99.1911 224.765 98.6426 224.084 97.9617C223.403 97.2618 222.874 96.458 222.496 95.5501C222.117 94.6233 221.928 93.6397 221.928 92.5995V92.5427C221.928 91.5024 222.117 90.5189 222.496 89.5921C222.874 88.6653 223.403 87.852 224.084 87.1521C224.765 86.4523 225.569 85.9038 226.496 85.5066C227.442 85.0905 228.472 84.8824 229.588 84.8824C230.685 84.8824 231.697 85.0905 232.624 85.5066C233.57 85.9038 234.383 86.4523 235.064 87.1521C235.745 87.8331 236.275 88.6369 236.653 89.5637C237.031 90.4716 237.22 91.4457 237.22 92.486V92.5427C237.22 93.583 237.022 94.5665 236.624 95.4933C236.246 96.4201 235.717 97.2335 235.036 97.9333C234.355 98.6331 233.541 99.1911 232.596 99.6072C231.65 100.004 230.629 100.203 229.532 100.203ZM238.908 85.1945H241.093V89.0247C241.357 88.4194 241.688 87.8614 242.086 87.3507C242.483 86.8401 242.937 86.405 243.447 86.0457C243.958 85.6674 244.516 85.3837 245.121 85.1945C245.727 85.0054 246.379 84.9203 247.079 84.9392V87.294H246.909C246.114 87.294 245.358 87.4359 244.639 87.7196C243.939 88.0033 243.324 88.4289 242.795 88.9963C242.265 89.5637 241.849 90.273 241.546 91.1241C241.244 91.9564 241.093 92.921 241.093 94.018V99.8625H238.908V85.1945ZM265.125 91.6632C265.069 91.0012 264.927 90.377 264.7 89.7907C264.473 89.1854 264.161 88.6558 263.764 88.2019C263.385 87.7479 262.912 87.3886 262.345 87.1238C261.796 86.859 261.163 86.7266 260.444 86.7266C259.82 86.7266 259.234 86.8495 258.685 87.0954C258.137 87.3413 257.654 87.6912 257.238 88.1451C256.822 88.5802 256.472 89.1003 256.188 89.7056C255.924 90.3108 255.753 90.9634 255.678 91.6632H265.125ZM255.678 93.4222C255.753 94.1977 255.942 94.8881 256.245 95.4933C256.548 96.0986 256.935 96.6093 257.408 97.0254C257.881 97.4415 258.411 97.7631 258.997 97.99C259.583 98.1981 260.198 98.3021 260.841 98.3021C261.863 98.3021 262.733 98.113 263.451 97.7347C264.189 97.3564 264.861 96.8552 265.466 96.231L266.828 97.451C266.09 98.2832 265.248 98.9547 264.303 99.4653C263.357 99.9571 262.184 100.203 260.785 100.203C259.782 100.203 258.836 100.023 257.947 99.6639C257.058 99.2857 256.283 98.7655 255.621 98.1035C254.959 97.4226 254.429 96.6093 254.032 95.6636C253.654 94.7179 253.465 93.6776 253.465 92.5427C253.465 91.4835 253.635 90.4905 253.975 89.5637C254.335 88.618 254.827 87.8047 255.451 87.1238C256.075 86.4239 256.813 85.8754 257.664 85.4782C258.534 85.081 259.479 84.8824 260.501 84.8824C261.579 84.8824 262.544 85.0905 263.395 85.5066C264.246 85.9038 264.965 86.4523 265.551 87.1521C266.137 87.852 266.582 88.6747 266.884 89.6205C267.187 90.5662 267.338 91.5781 267.338 92.6562C267.338 92.7508 267.338 92.8643 267.338 92.9967C267.338 93.1101 267.329 93.252 267.31 93.4222H255.678ZM268.893 85.1945H271.078V87.7479C271.569 86.9535 272.212 86.2821 273.007 85.7336C273.801 85.1661 274.832 84.8824 276.099 84.8824C276.988 84.8824 277.773 85.0243 278.454 85.308C279.154 85.5917 279.74 85.9984 280.213 86.528C280.705 87.0387 281.074 87.6534 281.32 88.3721C281.585 89.0909 281.717 89.8853 281.717 90.7553V99.8625H279.532V91.2944C279.532 89.9325 279.182 88.8544 278.483 88.06C277.783 87.2656 276.78 86.8684 275.475 86.8684C274.851 86.8684 274.265 86.9819 273.716 87.2089C273.187 87.4169 272.723 87.729 272.326 88.1451C271.929 88.5423 271.617 89.0247 271.39 89.5921C271.182 90.1595 271.078 90.7837 271.078 91.4646V99.8625H268.893V85.1945ZM295.733 100.175C294.844 100.175 294.049 100.033 293.35 99.7491C292.669 99.4653 292.082 99.0681 291.591 98.5575C291.118 98.0279 290.749 97.4037 290.484 96.6849C290.238 95.9662 290.115 95.1718 290.115 94.3017V85.1945H292.3V93.7627C292.3 95.1245 292.65 96.2026 293.35 96.997C294.049 97.7914 295.052 98.1886 296.357 98.1886C296.981 98.1886 297.558 98.0846 298.088 97.8765C298.636 97.6496 299.1 97.3375 299.478 96.9403C299.875 96.5242 300.187 96.0324 300.414 95.465C300.641 94.8975 300.755 94.2734 300.755 93.5925V85.1945H302.911V99.8625H300.755V97.3091C300.263 98.1035 299.62 98.7844 298.825 99.3519C298.031 99.9004 297 100.175 295.733 100.175ZM305.555 85.1945H307.74V87.7479C308.232 86.9535 308.875 86.2821 309.669 85.7336C310.464 85.1661 311.494 84.8824 312.762 84.8824C313.651 84.8824 314.436 85.0243 315.117 85.308C315.816 85.5917 316.403 85.9984 316.876 86.528C317.367 87.0387 317.736 87.6534 317.982 88.3721C318.247 89.0909 318.379 89.8853 318.379 90.7553V99.8625H316.195V91.2944C316.195 89.9325 315.845 88.8544 315.145 88.06C314.445 87.2656 313.443 86.8684 312.138 86.8684C311.513 86.8684 310.927 86.9819 310.379 87.2089C309.849 87.4169 309.386 87.729 308.988 88.1451C308.591 88.5423 308.279 89.0247 308.052 89.5921C307.844 90.1595 307.74 90.7837 307.74 91.4646V99.8625H305.555V85.1945ZM334.012 100.146C332.499 100.146 331.014 99.8909 329.558 99.3802C328.102 98.8506 326.778 98.0468 325.586 96.9687L328.168 93.8762C329.076 94.6138 330.003 95.2002 330.948 95.6352C331.913 96.0702 332.963 96.2877 334.098 96.2877C335.005 96.2877 335.705 96.127 336.197 95.8054C336.708 95.465 336.963 95.0016 336.963 94.4152V94.3585C336.963 94.0748 336.906 93.8289 336.793 93.6208C336.698 93.3939 336.5 93.1858 336.197 92.9967C335.913 92.8075 335.507 92.6184 334.977 92.4292C334.466 92.2401 333.795 92.0415 332.963 91.8334C331.96 91.5875 331.052 91.3133 330.239 91.0107C329.426 90.708 328.735 90.3392 328.168 89.9042C327.6 89.4502 327.156 88.8923 326.834 88.2303C326.532 87.5683 326.38 86.7455 326.38 85.7619V85.7052C326.38 84.7973 326.551 83.984 326.891 83.2652C327.232 82.5276 327.704 81.894 328.31 81.3644C328.934 80.8348 329.672 80.4281 330.523 80.1444C331.374 79.8607 332.31 79.7188 333.331 79.7188C334.788 79.7188 336.121 79.9363 337.332 80.3714C338.561 80.8064 339.687 81.4306 340.708 82.2439L338.438 85.535C337.549 84.9297 336.679 84.4569 335.828 84.1164C334.977 83.757 334.126 83.5773 333.275 83.5773C332.424 83.5773 331.781 83.7476 331.345 84.088C330.929 84.4096 330.721 84.8162 330.721 85.308V85.3647C330.721 85.6863 330.778 85.97 330.892 86.2159C331.024 86.4429 331.251 86.6509 331.572 86.8401C331.894 87.0292 332.329 87.2089 332.878 87.3791C333.445 87.5493 334.154 87.7479 335.005 87.9749C336.008 88.2397 336.897 88.5423 337.672 88.8828C338.467 89.2043 339.129 89.6015 339.658 90.0744C340.207 90.5283 340.613 91.0674 340.878 91.6916C341.162 92.3157 341.304 93.0629 341.304 93.9329V93.9897C341.304 94.9732 341.124 95.8527 340.765 96.6282C340.405 97.3848 339.904 98.0279 339.261 98.5575C338.618 99.0681 337.852 99.4653 336.963 99.7491C336.074 100.014 335.091 100.146 334.012 100.146ZM342.372 84.6554H346.684V86.8117C346.93 86.4901 347.195 86.1875 347.479 85.9038C347.781 85.6012 348.112 85.3364 348.472 85.1094C348.831 84.8824 349.228 84.7027 349.663 84.5703C350.117 84.4379 350.619 84.3717 351.167 84.3717C352.17 84.3717 353.03 84.5798 353.749 84.9959C354.487 85.412 355.054 86.0078 355.451 86.7833C356.113 85.9889 356.851 85.3931 357.664 84.9959C358.478 84.5798 359.404 84.3717 360.445 84.3717C362.052 84.3717 363.31 84.8446 364.218 85.7903C365.126 86.736 365.58 88.1262 365.58 89.9609V99.8625H361.267V91.3795C361.267 90.3581 361.05 89.5921 360.615 89.0814C360.18 88.5518 359.556 88.287 358.742 88.287C357.929 88.287 357.286 88.5518 356.813 89.0814C356.359 89.5921 356.132 90.3581 356.132 91.3795V99.8625H351.82V91.3795C351.82 90.3581 351.602 89.5921 351.167 89.0814C350.732 88.5518 350.108 88.287 349.295 88.287C348.481 88.287 347.838 88.5518 347.365 89.0814C346.911 89.5921 346.684 90.3581 346.684 91.3795V99.8625H342.372V84.6554ZM372.678 97.1673C373.7 97.1673 374.513 96.9214 375.118 96.4296C375.742 95.9378 376.054 95.2947 376.054 94.5003V93.7343C375.676 93.5641 375.251 93.4317 374.778 93.3371C374.324 93.2236 373.832 93.1669 373.302 93.1669C372.376 93.1669 371.647 93.3466 371.118 93.7059C370.588 94.0653 370.323 94.5855 370.323 95.2664V95.3231C370.323 95.9095 370.541 96.3634 370.976 96.6849C371.411 97.0065 371.978 97.1673 372.678 97.1673ZM371.373 100.146C370.654 100.146 369.974 100.052 369.33 99.8625C368.706 99.6545 368.158 99.3519 367.685 98.9547C367.212 98.5575 366.834 98.0751 366.55 97.5077C366.285 96.9214 366.153 96.2499 366.153 95.4933V95.4366C366.153 94.6044 366.304 93.8856 366.607 93.2804C366.909 92.6751 367.325 92.1739 367.855 91.7767C368.404 91.3795 369.047 91.0863 369.784 90.8972C370.541 90.6891 371.373 90.5851 372.281 90.5851C373.057 90.5851 373.728 90.6418 374.295 90.7553C374.882 90.8688 375.449 91.0201 375.998 91.2093V90.9539C375.998 90.046 375.723 89.3557 375.175 88.8828C374.626 88.4099 373.813 88.1735 372.735 88.1735C371.903 88.1735 371.165 88.2492 370.522 88.4005C369.898 88.5329 369.236 88.7315 368.536 88.9963L367.458 85.7052C368.29 85.3458 369.16 85.0527 370.068 84.8257C370.976 84.5987 372.073 84.4852 373.359 84.4852C374.551 84.4852 375.563 84.6365 376.395 84.9392C377.246 85.2229 377.946 85.639 378.494 86.1875C379.062 86.7549 379.478 87.4548 379.743 88.287C380.008 89.1003 380.14 90.0177 380.14 91.039V99.8625H375.969V98.217C375.44 98.8033 374.806 99.2762 374.068 99.6356C373.331 99.976 372.432 100.146 371.373 100.146ZM381.581 84.6554H385.894V87.7196C386.329 86.6793 386.924 85.8471 387.681 85.2229C388.438 84.5987 389.459 84.315 390.745 84.3717V88.8828H390.518C389.081 88.8828 387.946 89.3178 387.114 90.1879C386.3 91.0579 385.894 92.4103 385.894 94.245V99.8625H381.581V84.6554ZM396.305 100.118C395.643 100.118 395.038 100.042 394.489 99.8909C393.96 99.7585 393.496 99.5126 393.099 99.1533C392.721 98.7939 392.418 98.3305 392.191 97.7631C391.983 97.1767 391.879 96.4391 391.879 95.5501V88.3437H390.063V84.6554H391.879V80.7686H396.192V84.6554H399.766V88.3437H396.192V94.8408C396.192 95.8243 396.655 96.3161 397.582 96.3161C398.338 96.3161 399.048 96.1364 399.71 95.7771V99.2384C399.256 99.5032 398.754 99.7112 398.206 99.8625C397.657 100.033 397.024 100.118 396.305 100.118ZM411.99 84.0313H405.947V80.0025H422.402V84.0313H416.359V99.8625H411.99V84.0313ZM421.791 80.0025H426.614L431.806 93.9897L436.998 80.0025H441.707L433.678 100.004H429.82L421.791 80.0025ZM442.672 96.8835H445.282V99.8625H442.672V96.8835ZM442.7 81.6197V80.0025H445.254V81.6197L444.573 94.245H443.353L442.7 81.6197Z" fill="white"/>
<path d="M228.376 0.195862H215.037V60.667H228.376V0.195862Z" fill="white"/>
<path fill-rule="evenodd" clip-rule="evenodd" d="M188.744 60.667L188.556 24.3451L171.459 54.3843H165.447L148.538 25.1304V60.667H135.95V0.195862H147.035L168.829 37.6958L190.059 0.195862H201.144L201.332 60.667H188.744Z" fill="white"/>
<path d="M122.232 0.195862H108.893V60.667H122.232V0.195862Z" fill="white"/>
<path fill-rule="evenodd" clip-rule="evenodd" d="M84.8451 60.667L73.7603 43.7822H73.0088H66.9967V60.667H53.6573V0.195862H73.1966C78.2693 0.195862 82.7784 1.17754 86.536 2.94455C90.2935 4.71157 93.2995 7.26392 95.1783 10.6016C97.245 13.9393 98.1844 17.866 98.1844 22.1854C98.1844 26.7011 97.0571 30.6278 94.9905 33.7691C92.9238 37.1068 89.9178 39.4629 86.1602 41.2299L99.1238 60.667H84.8451ZM84.6572 22.1854C84.6572 18.8477 83.5299 16.099 81.4633 14.332C79.3966 12.565 76.3906 11.5833 72.2572 11.5833H66.9967V32.5911H72.2572C76.2027 32.5911 79.3966 31.6095 81.4633 29.8424C83.5299 28.0754 84.6572 25.5231 84.6572 22.1854Z" fill="white"/>
<path fill-rule="evenodd" clip-rule="evenodd" d="M17.2094 11.5834H2.55493V0.195984H44.8274V11.5834H30.7366V60.6672H17.2094V11.5834Z" fill="white"/>
<path d="M300.897 28.8612C305.97 26.5052 309.728 22.3822 309.728 15.3141V15.1178C309.728 10.9948 308.412 7.8534 305.97 5.30104C302.776 1.96335 297.703 0 290.376 0H260.692V60.2748H290.564C304.279 60.2748 312.358 53.9921 312.358 43.5864V43.39C312.358 35.3403 308.037 31.2173 300.897 28.8612ZM276.285 13.5471H286.807C291.503 13.5471 294.134 15.3141 294.134 18.6518V18.8482C294.134 22.3822 291.316 24.1492 286.431 24.1492H276.285V13.5471ZM296.388 41.4267C296.388 44.9607 293.57 46.9241 288.685 46.9241H276.285V35.733H288.497C293.946 35.733 296.388 37.8927 296.388 41.4267Z" fill="white"/>
<path d="M365.575 0.196106H335.89C327.624 0.196106 321.048 7.26417 321.048 15.7066V44.5678C321.048 53.2066 327.812 60.0783 335.89 60.0783H365.575C373.842 60.0783 380.418 53.0102 380.418 44.5678V15.7066C380.418 7.06783 373.842 0.196106 365.575 0.196106ZM360.878 30.4317C360.878 30.8244 360.69 31.4134 360.127 31.6097L348.666 41.6228C347.915 42.2118 346.975 42.9971 346.036 42.8008C345.097 42.6045 344.909 41.8191 344.909 41.2301V30.628V30.4317V19.4369C344.909 18.8479 345.097 18.0626 346.036 17.8663C347.163 17.6699 347.915 18.2589 348.666 19.0443L360.127 29.0574C360.502 29.45 360.69 29.8427 360.878 30.2354C360.878 30.039 360.878 30.2354 360.878 30.4317C360.878 30.2354 360.878 30.2354 360.878 30.4317Z" fill="white"/>
<path d="M384.753 60.1585L405.378 29.5636L385.612 0H404.777L415.434 16.9303L426.176 0H444.911L425.145 29.3917L445.771 60.1585H426.606L415.09 42.025L403.488 60.1585H384.753Z" fill="white"/>
</svg>
