<svg width="148" height="180" viewBox="0 0 148 180" fill="none" xmlns="http://www.w3.org/2000/svg">
<path d="M40.2229 172.345H39.0463V156.039H35.5522V154.969H43.7289V156.039H40.2229V172.345ZM49.4098 159.212C49.5762 159.212 49.7545 159.232 49.9446 159.272C50.1348 159.303 50.3249 159.363 50.5151 159.45L50.2774 160.567C50.1585 160.519 50.0159 160.476 49.8495 160.436C49.6911 160.397 49.5247 160.377 49.3504 160.377C48.9463 160.377 48.5818 160.527 48.257 160.828C47.9401 161.13 47.6707 161.534 47.4488 162.041C47.227 162.54 47.0566 163.098 46.9378 163.716C46.8268 164.326 46.7753 164.944 46.7833 165.57V172.345H45.6305V159.426H46.5099L46.7001 162.064H46.7833C46.918 161.597 47.1002 161.149 47.33 160.721C47.5597 160.286 47.845 159.925 48.1857 159.64C48.5264 159.355 48.9344 159.212 49.4098 159.212ZM53.6289 159.426V172.345H52.5117V159.426H53.6289ZM53.106 154.589C53.3833 154.589 53.5853 154.688 53.7121 154.886C53.8468 155.084 53.9141 155.33 53.9141 155.623C53.9141 155.94 53.8388 156.193 53.6883 156.384C53.5457 156.574 53.3436 156.669 53.0822 156.669C52.8286 156.669 52.6266 156.574 52.4761 156.384C52.3334 156.185 52.2621 155.936 52.2621 155.635C52.2621 155.334 52.3295 155.084 52.4642 154.886C52.5989 154.688 52.8128 154.589 53.106 154.589ZM66.3812 159.176C67.2924 159.176 67.9896 159.517 68.4729 160.199C68.9562 160.88 69.1979 161.938 69.1979 163.372V172.345H68.0688V163.526C68.0688 162.322 67.8906 161.466 67.534 160.959C67.1854 160.452 66.7259 160.199 66.1554 160.199C65.371 160.199 64.7649 160.579 64.337 161.339C63.9092 162.1 63.6952 163.138 63.6952 164.453V172.345H62.5662V163.764C62.5662 162.853 62.483 162.14 62.3166 161.625C62.1582 161.11 61.9363 160.745 61.6511 160.531C61.3738 160.309 61.045 160.199 60.6646 160.199C60.0546 160.199 59.5673 160.408 59.2028 160.828C58.8384 161.248 58.5729 161.799 58.4065 162.48C58.2402 163.154 58.157 163.879 58.157 164.655V172.345H57.016V159.426H57.9074L58.0381 161.589H58.1094C58.252 161.185 58.4343 160.801 58.6561 160.436C58.8859 160.072 59.179 159.771 59.5356 159.533C59.9001 159.295 60.3556 159.176 60.9023 159.176C61.6947 159.176 62.2849 159.418 62.6732 159.901C63.0693 160.377 63.3189 160.935 63.4219 161.577H63.5289C63.7903 160.848 64.135 160.266 64.5628 159.83C64.9986 159.394 65.6047 159.176 66.3812 159.176ZM73.7141 159.426V172.345H72.5969V159.426H73.7141ZM73.1911 154.589C73.4685 154.589 73.6705 154.688 73.7973 154.886C73.932 155.084 73.9993 155.33 73.9993 155.623C73.9993 155.94 73.924 156.193 73.7735 156.384C73.6309 156.574 73.4288 156.669 73.1674 156.669C72.9138 156.669 72.7118 156.574 72.5613 156.384C72.4186 156.185 72.3473 155.936 72.3473 155.635C72.3473 155.334 72.4147 155.084 72.5494 154.886C72.6841 154.688 72.898 154.589 73.1911 154.589ZM88.6413 172.345L87.1438 166.034H82.7346L81.2133 172.345H80.0011L84.1608 154.969H85.6582L89.8535 172.345H88.6413ZM86.9061 164.941L85.3611 158.154C85.2977 157.877 85.2383 157.616 85.1828 157.37C85.1353 157.124 85.0878 156.887 85.0402 156.657C85.0006 156.427 84.957 156.193 84.9095 155.956C84.8699 156.193 84.8263 156.427 84.7788 156.657C84.7391 156.879 84.6956 157.112 84.648 157.358C84.6005 157.604 84.5411 157.865 84.4698 158.142L82.9485 164.941H86.9061ZM95.7365 159.176C96.9487 159.176 97.8718 159.723 98.5056 160.817C99.1395 161.91 99.4564 163.566 99.4564 165.784C99.4564 167.306 99.3059 168.569 99.0048 169.576C98.7037 170.582 98.2759 171.335 97.7212 171.834C97.1666 172.333 96.5011 172.582 95.7246 172.582C95.1779 172.582 94.7025 172.464 94.2984 172.226C93.8943 171.98 93.5576 171.667 93.2882 171.287C93.0268 170.899 92.8287 170.491 92.694 170.063H92.6227C92.6385 170.277 92.6504 170.534 92.6583 170.835C92.6742 171.129 92.6821 171.445 92.6821 171.786V178.061H91.5293V159.426H92.4206L92.5276 161.957H92.6108C92.7851 161.442 93.003 160.975 93.2645 160.555C93.5338 160.127 93.8666 159.79 94.2628 159.545C94.6669 159.299 95.1581 159.176 95.7365 159.176ZM95.5463 160.199C94.9362 160.199 94.4133 160.412 93.9775 160.84C93.5497 161.26 93.2248 161.851 93.003 162.611C92.7891 163.372 92.6821 164.267 92.6821 165.297V166.593C92.6821 167.63 92.797 168.522 93.0268 169.267C93.2645 170.011 93.5972 170.578 94.0251 170.966C94.4609 171.354 94.9719 171.548 95.5582 171.548C96.0891 171.548 96.5605 171.362 96.9725 170.99C97.3924 170.61 97.7212 169.999 97.9589 169.16C98.1966 168.312 98.3155 167.191 98.3155 165.796C98.3155 163.982 98.0936 162.595 97.6499 161.637C97.2142 160.678 96.513 160.199 95.5463 160.199ZM106.385 159.176C107.597 159.176 108.52 159.723 109.154 160.817C109.788 161.91 110.105 163.566 110.105 165.784C110.105 167.306 109.955 168.569 109.654 169.576C109.352 170.582 108.925 171.335 108.37 171.834C107.815 172.333 107.15 172.582 106.373 172.582C105.827 172.582 105.351 172.464 104.947 172.226C104.543 171.98 104.206 171.667 103.937 171.287C103.675 170.899 103.477 170.491 103.343 170.063H103.271C103.287 170.277 103.299 170.534 103.307 170.835C103.323 171.129 103.331 171.445 103.331 171.786V178.061H102.178V159.426H103.069L103.176 161.957H103.26C103.434 161.442 103.652 160.975 103.913 160.555C104.183 160.127 104.515 159.79 104.911 159.545C105.316 159.299 105.807 159.176 106.385 159.176ZM106.195 160.199C105.585 160.199 105.062 160.412 104.626 160.84C104.198 161.26 103.874 161.851 103.652 162.611C103.438 163.372 103.331 164.267 103.331 165.297V166.593C103.331 167.63 103.446 168.522 103.675 169.267C103.913 170.011 104.246 170.578 104.674 170.966C105.11 171.354 105.621 171.548 106.207 171.548C106.738 171.548 107.209 171.362 107.621 170.99C108.041 170.61 108.37 169.999 108.608 169.16C108.845 168.312 108.964 167.191 108.964 165.796C108.964 163.982 108.742 162.595 108.299 161.637C107.863 160.678 107.162 160.199 106.195 160.199Z" fill="black"/>
<g filter="url(#filter0_d_1_396)">
<rect x="5.65155" y="0.305176" width="137.073" height="137.073" rx="25.7517" fill="white"/>
</g>
<path d="M118.476 42.4249C114.681 34.129 107.621 30.5988 105.591 29.628C105.414 29.5103 105.267 29.4221 105.15 29.3632C100.207 27.1569 95.7946 26.8921 94.0295 26.8921C92.3527 26.8921 90.8523 27.0686 89.5285 27.2451C86.6161 27.6864 84.4098 28.5689 83.3507 29.0102C77.1729 31.6578 73.9958 35.894 73.8193 36.0705C73.731 35.894 70.5539 31.6578 64.2878 29.0102C63.317 28.5689 61.1106 27.6864 58.1982 27.2451C56.8744 27.0686 55.2859 26.8921 53.6973 26.8921C51.9322 26.8921 47.5195 27.1569 42.5772 29.3632C42.4596 29.4221 42.3125 29.5103 42.136 29.628C40.1061 30.5988 33.0458 34.129 29.2508 42.4249C26.0737 49.2204 26.9562 55.4865 27.3092 57.6046C28.633 66.6065 34.1931 72.2548 36.0464 74.0199L42.5772 80.4625L58.1982 96.1718L71.9659 109.939C71.9659 109.939 72.5837 110.557 72.8485 110.734C73.025 110.851 73.1721 110.94 73.2897 110.998C73.378 110.998 73.6428 110.998 73.8193 110.998C74.084 110.998 74.3488 110.998 74.5253 110.91C74.643 110.851 74.7607 110.793 74.8783 110.734C75.0548 110.557 75.7609 109.939 75.7609 109.939L89.5285 96.1718L105.15 80.4625L111.68 74.0199C113.534 72.2548 119.005 66.6065 120.418 57.6046C120.771 55.4865 121.653 49.2204 118.476 42.4249Z" fill="url(#paint0_linear_1_396)"/>
<path fill-rule="evenodd" clip-rule="evenodd" d="M71.0842 49.9261L88.029 63.9585C88.6468 64.488 88.9998 65.1058 88.9998 65.7236C88.9998 65.7824 88.9998 65.8412 88.9998 65.9001C88.9998 66.0178 88.9998 66.106 88.9998 66.1649C88.9998 66.7826 88.6468 67.4004 88.029 67.9299L71.0842 81.9624C70.0251 82.8449 68.7013 83.904 67.1127 83.4627C65.7889 83.1979 65.5242 82.1389 65.4359 81.1681V66.1649V65.7236V50.7203C65.5242 49.7495 65.7889 48.6905 67.1127 48.4257C68.7013 47.9845 70.0251 49.0435 71.0842 49.9261Z" fill="white"/>
<defs>
<filter id="filter0_d_1_396" x="0.501204" y="0.305176" width="147.374" height="147.373" filterUnits="userSpaceOnUse" color-interpolation-filters="sRGB">
<feFlood flood-opacity="0" result="BackgroundImageFix"/>
<feColorMatrix in="SourceAlpha" type="matrix" values="0 0 0 0 0 0 0 0 0 0 0 0 0 0 0 0 0 0 127 0" result="hardAlpha"/>
<feOffset dy="5.15035"/>
<feGaussianBlur stdDeviation="2.57517"/>
<feComposite in2="hardAlpha" operator="out"/>
<feColorMatrix type="matrix" values="0 0 0 0 0 0 0 0 0 0 0 0 0 0 0 0 0 0 0.25 0"/>
<feBlend mode="normal" in2="BackgroundImageFix" result="effect1_dropShadow_1_396"/>
<feBlend mode="normal" in="SourceGraphic" in2="effect1_dropShadow_1_396" result="shape"/>
</filter>
<linearGradient id="paint0_linear_1_396" x1="26.9191" y1="26.8947" x2="120.794" y2="26.8947" gradientUnits="userSpaceOnUse">
<stop offset="0.034" stop-color="#FFC400"/>
<stop offset="0.169" stop-color="#FF7400"/>
<stop offset="0.358" stop-color="#FF0000"/>
<stop offset="0.526" stop-color="#D632EA"/>
<stop offset="0.671" stop-color="#136DEA"/>
<stop offset="0.855" stop-color="#13C2EA"/>
<stop offset="1" stop-color="#3BE28A"/>
</linearGradient>
</defs>
</svg>
