<svg width="93" height="93" viewBox="0 0 93 93" fill="none" xmlns="http://www.w3.org/2000/svg">
<g filter="url(#filter0_d_1_352)">
<rect x="5.68835" y="0.792847" width="81.842" height="81.842" rx="25.855" fill="white"/>
</g>
<path d="M46.6994 19.6158C46.6994 19.6158 27.1246 19.6159 22.2116 20.8925C19.5811 21.6275 17.415 23.7936 16.68 26.4629C15.4033 31.3759 15.4033 41.5503 15.4033 41.5503C15.4033 41.5503 15.4033 51.7633 16.68 56.599C17.415 59.2682 19.5424 61.3957 22.2116 62.1307C27.1633 63.446 46.6994 63.446 46.6994 63.446C46.6994 63.446 66.3129 63.446 71.2258 62.1694C73.8951 61.4344 76.0225 59.3456 76.7188 56.6377C78.0341 51.7634 78.0341 41.589 78.0341 41.589C78.0341 41.589 78.0728 31.3759 76.7188 26.4629C76.0225 23.7936 73.8951 21.6662 71.2258 20.9699C66.3129 19.6159 46.6994 19.6158 46.6994 19.6158ZM40.471 32.15L56.7577 41.5503L40.471 50.9119V32.15Z" fill="#FF0000"/>
<defs>
<filter id="filter0_d_1_352" x="0.517353" y="0.792847" width="92.1839" height="92.1839" filterUnits="userSpaceOnUse" color-interpolation-filters="sRGB">
<feFlood flood-opacity="0" result="BackgroundImageFix"/>
<feColorMatrix in="SourceAlpha" type="matrix" values="0 0 0 0 0 0 0 0 0 0 0 0 0 0 0 0 0 0 127 0" result="hardAlpha"/>
<feOffset dy="5.171"/>
<feGaussianBlur stdDeviation="2.5855"/>
<feComposite in2="hardAlpha" operator="out"/>
<feColorMatrix type="matrix" values="0 0 0 0 0 0 0 0 0 0 0 0 0 0 0 0 0 0 0.25 0"/>
<feBlend mode="normal" in2="BackgroundImageFix" result="effect1_dropShadow_1_352"/>
<feBlend mode="normal" in="SourceGraphic" in2="effect1_dropShadow_1_352" result="shape"/>
</filter>
</defs>
</svg>
